<?xml version="1.0" encoding="UTF-8"?>
<svg version="1.1" xmlns="http://www.w3.org/2000/svg" width="1024" height="1024">
<path d="M0 0 C337.92 0 675.84 0 1024 0 C1024 337.92 1024 675.84 1024 1024 C686.08 1024 348.16 1024 0 1024 C0 686.08 0 348.16 0 0 Z " fill="#173066" transform="translate(0,0)"/>
<path d="M0 0 C14.15558526 0.93691292 28.3281814 1.54679821 42.50003052 2.17750168 C44.60013808 2.27131281 46.70018598 2.36635326 48.80021667 2.46186829 C64.38446338 3.1701781 79.96850699 3.81478759 95.56166077 4.2915802 C135.4383714 5.56431445 135.4383714 5.56431445 145.44169617 15.33598328 C148.60383164 19.32742081 150.99206398 23.74774178 153.41044617 28.21098328 C160.32490217 40.96721238 168.64205405 49.13044342 182.27372742 54.64848328 C190.16546398 56.65728895 199.32770906 56.28774061 207.27372742 54.64848328 C209.29077403 54.48680148 211.31329466 54.38457458 213.33622742 54.33598328 C214.35845398 54.29860046 215.38068054 54.26121765 216.43388367 54.22270203 C220.06596335 54.76726418 220.94784366 55.85642239 223.27372742 58.64848328 C226.34137837 66.35242502 226.70675736 74.41986989 226.65849304 82.6101532 C226.66393946 83.74951136 226.66938587 84.88886951 226.67499733 86.06275368 C226.69004642 89.83491275 226.68470428 93.6067704 226.67997742 97.37895203 C226.68815472 100.07930392 226.69767751 102.77961418 226.70924377 105.47994995 C226.73218314 111.25111411 226.74655621 117.0222396 226.75535583 122.79344177 C226.77915212 137.34602279 226.86292639 151.89834633 226.95434141 166.45063972 C226.96416116 168.01552817 226.9738477 169.58041746 226.98340273 171.14530754 C227.17722136 202.78204505 227.75996859 234.39784043 228.64872742 266.02348328 C228.68152424 267.19378334 228.71432106 268.3640834 228.74811172 269.56984711 C229.87357096 309.46911612 231.32357675 349.35075327 233.16207886 389.22325134 C233.36341685 393.59671872 233.56308849 397.97026233 233.76298523 402.34379578 C234.02304951 408.03162247 234.2832883 413.71944099 234.54425049 419.40722656 C235.23701647 434.50968935 235.92252021 449.61247301 236.59915161 464.71566772 C236.93848311 472.28182182 237.28007925 479.84773684 237.64628601 487.41264343 C239.18865823 519.36214174 239.50294607 551.28808863 239.57699585 583.27007294 C239.58610782 586.54302514 239.60015742 589.81592309 239.61540222 593.08885193 C239.91113169 662.61514283 239.91113169 662.61514283 228.27372742 676.64848328 C224.66595204 680.16606427 220.92147502 682.44589327 216.52372742 684.89848328 C199.0115788 695.01661359 190.89562464 710.38495439 183.25028992 728.38334656 C181.63186815 732.13727585 179.91888509 735.83898642 178.14872742 739.52348328 C177.84821472 740.18340271 177.54770203 740.84332214 177.23808289 741.52323914 C175.02580521 746.0647614 172.72535766 748.30838425 168.27372742 750.64848328 C162.84617426 752.46191457 157.66017927 753.16457342 152.00028992 753.64848328 C151.11827911 753.72969421 150.23626831 753.81090515 149.32752991 753.89457703 C146.51845972 754.15219046 143.70869038 754.40081569 140.89872742 754.64848328 C137.22395473 754.97862604 133.54954309 755.31261108 129.87528992 755.64848328 C128.96994507 755.730802 128.06460022 755.81312073 127.13182068 755.89793396 C121.60319614 756.40843564 116.08986508 756.99400104 110.57841492 757.66410828 C101.65825676 758.74771281 92.72309928 759.59548866 83.77372742 760.39848328 C82.87676147 760.47919067 81.97979553 760.55989807 81.0556488 760.64305115 C73.46275315 761.32394866 65.86834451 761.98710794 58.27372742 762.64848328 C56.90494906 762.76818916 55.53617478 762.88794165 54.16740417 763.00773621 C-140.09870186 779.99537432 -140.09870186 779.99537432 -171.48799133 758.58598328 C-177.1568352 753.67892122 -182.16184702 748.0070209 -186.70674133 742.05473328 C-194.19080127 733.13755548 -205.74081339 726.84858469 -215.39009094 720.55888367 C-229.57733112 711.26991903 -237.02472351 701.4348789 -240.72627258 684.64848328 C-245.78825897 660.33349352 -245.96101613 635.37729264 -246.72627258 610.64848328 C-246.76815317 609.30385813 -246.81004397 607.9592333 -246.85194397 606.61460876 C-247.26158655 593.43426824 -247.66229993 580.25366392 -248.02949524 567.07206726 C-248.37590828 554.69921037 -248.7502305 542.33250197 -249.35264587 529.96894836 C-249.7161846 522.33057912 -249.96298277 514.69043511 -250.19111633 507.04692078 C-250.22999466 505.74756592 -250.26887299 504.44821106 -250.30892944 503.10948181 C-250.46716272 497.77408465 -250.62332199 492.43863703 -250.77583313 487.10307312 C-251.80824822 451.22160982 -253.62683613 415.37786429 -255.41616821 379.52754211 C-257.84490082 330.85757371 -260.19243144 282.18380995 -262.26982117 233.49745178 C-262.48559348 228.44401842 -262.706333 223.39084617 -262.93199158 218.33784485 C-264.08451642 192.43692288 -264.92205187 166.57375147 -264.93330383 140.64457703 C-264.93486858 139.53910145 -264.93643333 138.43362587 -264.9380455 137.29465103 C-264.95728022 85.63802822 -264.95728022 85.63802822 -253.67549133 74.09770203 C-252.60671596 73.15575531 -251.51907699 72.23478614 -250.41377258 71.33598328 C-249.8405426 70.83655212 -249.26731262 70.33712097 -248.67671204 69.82255554 C-246.28180862 67.74503676 -243.83402412 65.73683954 -241.38252258 63.72660828 C-233.22932107 56.93227368 -227.3306239 48.97907682 -224.72627258 38.64848328 C-224.13948546 36.39483382 -223.54447594 34.14376848 -222.93989563 31.89482117 C-222.51487496 30.30613311 -222.10171005 28.71421222 -221.70210266 27.11894226 C-220.06928888 20.92760625 -217.81209132 15.42392655 -212.10127258 11.96098328 C-203.62561696 7.22353464 -194.29695717 5.92273479 -184.78877258 4.64848328 C-183.55932922 4.48042175 -182.32988586 4.31236023 -181.06318665 4.13920593 C-177.28567814 3.63041641 -173.50636186 3.13768895 -169.72627258 2.64848328 C-168.64136536 2.50378601 -167.55645813 2.35908875 -166.43867493 2.21000671 C-111.48135724 -5.02414464 -55.17277638 -3.73661758 0 0 Z " fill="#000000" transform="translate(544.7262725830078,122.35151672363281)"/>
<path d="M0 0 C1.22356201 -0.00340393 2.44712402 -0.00680786 3.70776367 -0.01031494 C28.0703167 -0.05030462 52.52209655 0.62260271 71.9375 17.3125 C81.31488382 28.29795156 86.46805833 40.43473333 89.9375 54.3125 C90.26492188 55.5396875 90.59234375 56.766875 90.9296875 58.03125 C99.6548905 91.7387995 101.83022215 127.69236384 105.15756226 162.30513 C105.53330413 166.20596344 105.91344757 170.10636872 106.29296875 174.00683594 C106.82722354 179.50195633 107.35964964 184.99724861 107.88990974 190.49275589 C108.66436402 198.51738036 109.45359367 206.54040737 110.25390625 214.5625 C115.79617524 270.36017805 120.20158305 326.27157981 124.58069611 382.17049408 C124.80983607 385.09104627 125.04013045 388.01150544 125.27069092 390.9319458 C128.18689859 427.92127529 128.18689859 427.92127529 128.65353394 441.79927063 C128.80750837 446.31335558 129.16671732 450.75009056 129.69873047 455.235672 C130.0185167 458.0171869 130.21840514 460.80022461 130.40234375 463.59375 C130.47912354 464.74842773 130.55590332 465.90310547 130.63500977 467.09277344 C130.71420654 468.3202832 130.79340332 469.54779297 130.875 470.8125 C130.95999756 472.11477539 131.04499512 473.41705078 131.13256836 474.75878906 C131.35859023 478.23525418 131.5809545 481.71194384 131.80212402 485.1887207 C131.93651814 487.29709657 132.07214405 489.40539025 132.20800781 491.51367188 C133.19681189 506.90018479 134.11383935 522.27965027 134.59594727 537.69238281 C134.75293823 542.4960653 134.99707832 547.2635079 135.4296875 552.05078125 C137.7525253 578.71524651 137.08458758 605.78391615 137.16867065 632.53179932 C137.17957746 635.91773634 137.19722794 639.30352316 137.22122192 642.68939209 C137.33921256 660.19381857 137.11969862 677.55665718 135.5390625 695 C135.47578011 695.69868572 135.41249771 696.39737144 135.34729767 697.11722946 C132.06514122 732.44323083 122.26699946 770.17373458 93.81347656 793.79931641 C86.6615623 799.46939233 79.0617684 804.14937058 70.9375 808.3125 C70.29474121 808.6434668 69.65198242 808.97443359 68.98974609 809.31542969 C44.34937398 821.83022379 18.20675749 828.00685258 -8.86376953 832.70581055 C-11.40270711 833.18735992 -13.90159209 833.73049415 -16.41796875 834.3125 C-20.75841791 835.2869172 -25.07509842 835.92151012 -29.4921875 836.42578125 C-30.29498642 836.52039642 -31.09778534 836.6150116 -31.9249115 836.7124939 C-34.59502884 837.02360903 -37.2660623 837.32544275 -39.9375 837.625 C-40.87467865 837.73099518 -41.8118573 837.83699036 -42.7774353 837.94619751 C-81.01838976 842.24121669 -119.44222276 845.5969857 -157.89990234 847.10205078 C-161.48458705 847.24388617 -165.06769006 847.40596049 -168.65087891 847.58154297 C-202.89109425 849.25256375 -237.10951208 849.52664367 -271.38474274 849.5583725 C-274.8250883 849.56244098 -278.26541168 849.56994075 -281.70574951 849.57818604 C-388.30419269 849.80089368 -388.30419269 849.80089368 -405.0625 836.3125 C-411.10195271 829.93752213 -411.51217636 822.6696295 -412.3125 814.3125 C-412.56595066 811.80450925 -412.82134147 809.2967142 -413.078125 806.7890625 C-413.14994995 806.08278717 -413.2217749 805.37651184 -413.29577637 804.64883423 C-413.98009818 797.97687541 -414.72910333 791.31269192 -415.484375 784.6484375 C-418.21325311 760.5338876 -420.81154778 736.43629135 -422.79736328 712.2487793 C-423.01398381 709.84979668 -423.28026763 707.47574594 -423.60546875 705.08984375 C-424.29289171 699.40832239 -424.44860619 693.71756651 -424.66796875 688.00195312 C-424.70535156 687.11314453 -424.74273437 686.22433594 -424.78125 685.30859375 C-424.81154297 684.51638428 -424.84183594 683.7241748 -424.87304688 682.90795898 C-425.03734528 680.20757958 -425.03734528 680.20757958 -425.53735352 677.13598633 C-426.17746811 672.47544023 -426.47137719 667.83477818 -426.74609375 663.140625 C-426.80652359 662.14593201 -426.86695343 661.15123901 -426.92921448 660.12640381 C-427.12214803 656.93859035 -427.31108368 653.75055377 -427.5 650.5625 C-427.62279755 648.52993284 -427.74584275 646.49738062 -427.86914062 644.46484375 C-429.96654107 609.73443553 -431.86801776 574.99262146 -433.75 540.25 C-433.81322826 539.08307995 -433.87645653 537.9161599 -433.9416008 536.71387863 C-436.24881935 494.10493921 -438.46492363 451.49162637 -440.625 408.875 C-440.66185 408.14800557 -440.69870001 407.42101114 -440.73666668 406.67198658 C-443.05019808 361.01788517 -445.29940873 315.36084237 -447.46508789 269.69946289 C-447.60467443 266.75863971 -447.74428414 263.81781762 -447.88392448 260.87699699 C-447.97371058 258.98505092 -448.06338926 257.09309974 -448.15295601 255.20114326 C-448.69807944 243.69584276 -449.27099538 232.1924289 -449.87513733 220.69007874 C-451.24693879 194.56527285 -452.23576327 168.50199805 -452.19287109 142.33447266 C-452.18743579 138.39091266 -452.19289973 134.44746317 -452.19921875 130.50390625 C-452.19855894 127.94270809 -452.1972798 125.38150999 -452.1953125 122.8203125 C-452.19733673 121.66798126 -452.19936096 120.51565002 -452.20144653 119.32839966 C-452.1701883 108.32300452 -451.71610612 97.32501673 -449.625 86.5 C-449.48940674 85.77699707 -449.35381348 85.05399414 -449.21411133 84.30908203 C-448.83582635 82.30915678 -448.44952147 80.31075296 -448.0625 78.3125 C-447.92070312 77.47074219 -447.77890625 76.62898438 -447.6328125 75.76171875 C-445.5002055 64.20647064 -440.35032269 53.44322039 -433.0625 44.3125 C-432.39154297 43.39791016 -432.39154297 43.39791016 -431.70703125 42.46484375 C-414.32071634 20.08187529 -381.34379329 13.00391886 -354.90356445 9.66040039 C-353.45663857 9.48116011 -352.00961783 9.30268391 -350.5625 9.125 C-349.53979507 8.9978511 -349.53979507 8.9978511 -348.49642944 8.86813354 C-330.09139903 6.60937081 -311.73043694 6.15653982 -293.20144653 5.92462158 C-286.13804444 5.83449507 -279.0748949 5.72727066 -272.01171875 5.62109375 C-271.23820509 5.60954758 -270.46469143 5.5980014 -269.66773796 5.58610535 C-248.88989101 5.27505311 -228.11329215 4.89794211 -207.33695984 4.49914932 C-205.19207543 4.4579811 -203.04718812 4.41696343 -200.90229797 4.37609482 C-174.11784688 3.86514848 -147.33747695 3.26568222 -120.55859375 2.515625 C-119.33320389 2.48132448 -118.10781403 2.44702396 -116.84529114 2.41168404 C-111.91450715 2.27347125 -106.983734 2.13487654 -102.05296707 1.99605656 C-31.8476645 0.02055011 -31.8476645 0.02055011 0 0 Z M-334.625 32.3125 C-336.01525391 32.52495361 -336.01525391 32.52495361 -337.43359375 32.74169922 C-346.27508776 34.23878454 -354.68695934 36.78145835 -361.0625 43.3125 C-364.16159021 48.47232546 -365.16154509 53.75341826 -366.375 59.5625 C-368.13843528 67.37419719 -369.94081425 73.98087472 -375.0625 80.3125 C-375.99835938 81.49392578 -375.99835938 81.49392578 -376.953125 82.69921875 C-381.31150424 87.84049204 -386.14725833 92.14703871 -391.3125 96.4375 C-403.85610646 106.88278284 -405.94123869 118.23839444 -407.40527344 134.06005859 C-408.30090705 144.62633146 -408.35606108 155.18673633 -408.3515625 165.78515625 C-408.35211891 166.89659626 -408.35267532 168.00803627 -408.3532486 169.15315628 C-408.32150725 202.51233325 -406.66676583 235.83270902 -405.17099369 269.15117329 C-404.77480053 277.99084003 -404.39517703 286.83119662 -404.01559711 295.67158926 C-402.11557953 339.84628883 -399.96985561 384.0068172 -397.68736076 428.16328812 C-397.25307059 436.57006345 -396.82557742 444.9771318 -396.41308594 453.38500977 C-396.34872125 454.69566296 -396.34872125 454.69566296 -396.28305626 456.032794 C-395.18411812 478.60765334 -394.49271802 501.19555241 -393.81201172 523.78613281 C-393.72887271 526.54492283 -393.6457173 529.30371234 -393.5625 532.0625 C-393.54188633 532.74622429 -393.52127266 533.42994858 -393.50003433 534.13439178 C-393.03328319 549.57868422 -392.49162462 565.02010374 -391.93850708 580.46151733 C-391.44495232 594.25100186 -390.96860145 608.04078369 -390.52734375 621.83203125 C-390.48256842 623.22629339 -390.43777883 624.62055507 -390.39297485 626.01481628 C-390.17885253 632.68646255 -389.96739644 639.35817706 -389.75976562 646.0300293 C-390.55305815 695.36938612 -390.55305815 695.36938612 -371.0625 738.3125 C-367.26899289 741.62624004 -363.24568822 744.5177692 -359.0625 747.3125 C-358.44858398 747.72387207 -357.83466797 748.13524414 -357.20214844 748.55908203 C-354.61966147 750.28444484 -352.03347811 752.003941 -349.43945312 753.71191406 C-344.44623084 757.01054536 -339.70645829 760.5362027 -335.0625 764.3125 C-334.0725 765.055 -333.0825 765.7975 -332.0625 766.5625 C-329.1788744 768.96685265 -326.9659349 771.82481828 -324.625 774.75 C-312.57484249 789.71714055 -296.78080364 793.4567629 -278.25 795.5 C-214.77492131 801.69077118 -150.32367265 795.01554933 -87.06275177 789.48700714 C-84.01120379 789.2207822 -80.95944905 788.95695155 -77.90771484 788.69287109 C-60.0514911 787.14351493 -42.2023546 785.5826493 -24.41210938 783.38378906 C-18.46389332 782.65940235 -12.51882822 782.08084901 -6.546875 781.6015625 C-5.80789474 781.54071976 -5.06891449 781.47987701 -4.30754089 781.41719055 C-0.68496829 781.11908725 2.93750995 780.83486061 6.56323242 780.57788086 C20.02828729 779.57794151 20.02828729 779.57794151 31.41796875 772.98828125 C33.18532021 769.87610708 34.7699442 766.76036157 36.25 763.5 C36.54849854 762.8505542 36.84699707 762.2011084 37.15454102 761.53198242 C38.71700066 758.11013437 40.2178646 754.66784025 41.6640625 751.1953125 C48.65542926 734.47960834 57.81967107 720.28610146 73.82421875 711.1015625 C84.11711385 705.18669932 88.81807768 699.70575491 91.9375 688.3125 C95.55795691 672.18501012 96.09732601 656.23390818 96.10546875 639.76953125 C96.10954458 637.74227355 96.11382665 635.71501626 96.11830139 633.6877594 C96.12991873 627.1668304 96.1284691 620.645936 96.125 614.125 C96.12473312 613.0112928 96.12446625 611.8975856 96.12419128 610.7501297 C96.11408216 577.24630754 95.75098766 543.84261423 94.13079834 510.37359619 C93.78392848 503.14346023 93.46597294 495.91196701 93.14201164 488.6807766 C92.46229979 473.52184201 91.77200134 458.36339774 91.07652473 443.20517921 C90.81727537 437.55156236 90.55885252 431.89790766 90.30044651 426.2442522 C90.1070132 422.0132269 89.91322673 417.78221893 89.71813965 413.55126953 C87.86221531 373.27613416 86.44193814 332.98962276 85.3125 292.6875 C85.27978374 291.52332298 85.24706749 290.35914597 85.21335983 289.15969086 C84.34356546 257.92552508 83.82358821 226.70163565 83.6328125 195.45703125 C83.62302546 193.89735409 83.61323314 192.33767697 83.60343552 190.77799988 C83.51345314 176.26075089 83.43786161 161.74356169 83.41572607 147.22603709 C83.4067469 141.51091717 83.38865845 135.79587238 83.36417925 130.08079809 C83.35066148 126.76822561 83.34448566 123.45589273 83.34863663 120.14328957 C83.35311566 116.5200787 83.33958524 112.89733272 83.32226562 109.27416992 C83.33147569 107.71125497 83.33147569 107.71125497 83.34087181 106.11676598 C83.27730659 98.44627117 83.10809285 89.11857511 78.00711823 82.9952116 C75.23315847 80.73983222 73.53107148 80.87086876 70 81 C68.98035156 81.02449219 67.96070313 81.04898438 66.91015625 81.07421875 C64.00197999 81.24713325 64.00197999 81.24713325 61.4453125 81.8203125 C49.00371604 84.26212115 37.33589628 81.91841118 26.75 75.26171875 C18.40422463 69.47763277 14.30269103 62.70641232 9.58203125 53.90063477 C5.04839168 45.49713504 0.41883161 38.30813545 -9.0625 35.3125 C-25.10359413 31.45847089 -41.31762763 31.14857175 -57.72628784 30.61080933 C-82.83321876 29.7769049 -107.91444842 28.56585231 -133 27.25 C-134.70011353 27.16115562 -136.40022746 27.07231889 -138.1003418 26.98348999 C-142.95113377 26.72960604 -147.80176414 26.47274934 -152.65234375 26.21484375 C-153.74546529 26.15705875 -153.74546529 26.15705875 -154.86067009 26.09810638 C-156.95657242 25.98700177 -159.05240406 25.8746906 -161.14819336 25.76147461 C-161.81453985 25.72553664 -162.48088634 25.68959867 -163.16742516 25.65257168 C-167.69428597 25.40270322 -172.21482568 25.09176019 -176.73681641 24.76660156 C-183.72544685 24.29301037 -190.68048 24.15190972 -197.68359375 24.14453125 C-198.93037903 24.14029648 -200.17716431 24.13606171 -201.46173096 24.13169861 C-205.47452519 24.1218763 -209.48720157 24.12151807 -213.5 24.125 C-214.18645725 24.12526688 -214.87291451 24.12553375 -215.58017349 24.12580872 C-255.60654946 24.14534548 -295.04505949 26.07191279 -334.625 32.3125 Z " fill="#020202" transform="translate(688.0625,95.6875)"/>
<path d="M0 0 C0.83801147 -0.00785522 1.67602295 -0.01571045 2.53942871 -0.02380371 C24.34847302 -0.18431483 50.89206707 1.35867093 67.75 16.9375 C79.74892816 29.8933979 85.42164316 47.06218877 89.5625 63.875 C89.72825531 64.54098206 89.89401062 65.20696411 90.06478882 65.89312744 C96.55534886 92.20445918 99.91710968 119.43846108 102.5625 146.375 C102.6548291 147.29474609 102.7471582 148.21449219 102.84228516 149.16210938 C104.80793879 169.17990094 105.71219616 189.28449572 106.5625 209.375 C106.624375 210.82727997 106.624375 210.82727997 106.6875 212.30889893 C108.24269042 249.34414903 108.8125296 286.38973061 109.35004163 323.45082569 C110.33764447 391.5131053 111.77000363 459.4597751 116.83287048 527.36021423 C117.81440988 540.58968194 118.62469662 553.82990435 119.43383789 567.07086182 C119.60359418 569.84294461 119.77622605 572.61483637 119.94921875 575.38671875 C119.99696945 576.18586197 120.04472015 576.98500519 120.09391785 577.80836487 C120.35190823 581.91814267 120.76590693 585.96194892 121.30329895 590.04652405 C121.90679972 595.46794127 122.16413888 600.92400798 122.5 606.3671875 C122.58559048 607.72186943 122.6714516 609.07653428 122.75756836 610.43118286 C122.98277928 613.98142171 123.20539566 617.5318175 123.42712402 621.08227539 C123.78144175 626.75583195 124.13784606 632.4292516 124.49783325 638.10245132 C124.62178936 640.06632047 124.74342074 642.03033592 124.86499023 643.99435425 C125.24946873 650.07707232 125.7007536 656.1366724 126.33932495 662.19802856 C128.55567745 683.81754248 128.75793075 705.66669948 128.75 727.375 C128.75081573 728.4165625 128.75163147 729.458125 128.75247192 730.53125 C128.74494497 815.31480472 128.74494497 815.31480472 100.96484375 845.12109375 C73.87410455 870.53793362 33.73513234 873.90045497 -1.4375 877.375 C-2.24360718 877.45512329 -3.04971436 877.53524658 -3.88024902 877.61779785 C-10.29423759 878.25488919 -16.70929332 878.88046611 -23.125 879.5 C-24.01547028 879.58644775 -24.90594055 879.67289551 -25.82339478 879.76196289 C-59.5526469 883.02205377 -93.32310735 883.60766694 -127.1875 883.625 C-127.98628948 883.62588371 -128.78507896 883.62676743 -129.60807419 883.62767792 C-169.67524987 883.66670781 -209.50755382 881.76879861 -249.45327759 878.60955811 C-257.29944531 877.99285399 -265.14833338 877.41705324 -273 876.875 C-273.92328094 876.81119141 -274.84656189 876.74738281 -275.79782104 876.68164062 C-292.52232412 875.54521337 -309.24657603 874.90399212 -326 874.375 C-441.75490432 870.67383031 -441.75490432 870.67383031 -467.07421875 845.9921875 C-478.10150556 833.78015087 -482.95586615 818.32836048 -485.4375 802.375 C-485.59992188 801.34632813 -485.76234375 800.31765625 -485.9296875 799.2578125 C-486.83805578 793.45215434 -487.72090577 787.64270787 -488.5703125 781.828125 C-488.71355957 780.85004883 -488.85680664 779.87197266 -489.00439453 778.86425781 C-493.66381561 741.32623862 -492.74055366 702.88930476 -492.63311768 665.14324951 C-492.62231561 660.37839973 -492.62269205 655.61357854 -492.62313271 650.84871864 C-492.62260731 629.04712453 -492.53236879 607.25551368 -492.01036263 585.45970345 C-491.07188282 546.08261938 -491.19584009 506.69065734 -491.18831015 467.30470753 C-491.18749623 464.11018903 -491.18602663 460.91567143 -491.18437576 457.72115326 C-491.15642149 400.29938138 -491.45895467 342.90571649 -492.875 285.5 C-492.8919158 284.81309523 -492.9088316 284.12619045 -492.92625999 283.41847038 C-493.45740356 261.9174591 -494.02951606 240.41698334 -494.74951172 218.92138672 C-495.52974328 195.31706587 -495.65828271 171.71789572 -495.67773438 148.1015625 C-495.68325997 142.36875832 -495.70745919 136.6361866 -495.73570633 130.90345573 C-495.75453803 126.38857406 -495.75954851 121.87374709 -495.76107025 117.3588295 C-495.7640374 115.2470888 -495.77185538 113.13534758 -495.78525543 111.02364731 C-496.1156462 55.10419511 -496.1156462 55.10419511 -478.33984375 36.13671875 C-464.19519501 22.89014295 -445.83524542 17.71031031 -427.4375 13.375 C-426.23996094 13.08753906 -425.04242188 12.80007812 -423.80859375 12.50390625 C-411.51239064 9.80405733 -398.94992357 8.61305837 -386.4375 7.375 C-385.68307617 7.30007324 -384.92865234 7.22514648 -384.15136719 7.14794922 C-350.49877489 4.02270848 -315.68861782 6.58661816 -282 8.3125 C-280.75869324 8.37576477 -280.75869324 8.37576477 -279.49230957 8.44030762 C-271.13464496 8.86979138 -262.78367058 9.3335005 -254.4375 9.94921875 C-217.21808805 12.60230544 -179.25358996 12.59306873 -142 10.5 C-141.29788391 10.46088501 -140.59576782 10.42177002 -139.87237549 10.38146973 C-132.7328679 9.96536018 -125.64649057 9.30861956 -118.55078125 8.42578125 C-107.09183931 7.00432681 -95.57638672 6.26618649 -84.0625 5.4375 C-79.30969088 5.09260009 -74.55709101 4.74497592 -69.8046875 4.39453125 C-68.64102661 4.30875824 -67.47736572 4.22298523 -66.27844238 4.13461304 C-59.72190143 3.64383341 -53.1755986 3.09778428 -46.6328125 2.44921875 C-31.0689258 0.91531263 -15.64602829 0.07074477 0 0 Z M-139.11352539 22.16259766 C-144.05353891 22.30143925 -148.99356178 22.43994147 -153.93359375 22.578125 C-155.77567885 22.62971079 -155.77567885 22.62971079 -157.6549778 22.68233871 C-183.19260342 23.39444167 -208.73226114 23.9506806 -234.27507401 24.43839264 C-237.48904555 24.49979073 -240.70300429 24.56182759 -243.91696167 24.6239624 C-263.5125817 25.00146271 -283.10825198 25.35859353 -302.70582771 25.61797714 C-304.96921282 25.64802873 -307.23258539 25.67889926 -309.49595642 25.70999146 C-316.10733582 25.80016345 -322.71861146 25.88285409 -329.33032227 25.94580078 C-350.58831624 26.18643973 -372.01773603 26.98366032 -393.0625 30.1875 C-394.21089355 30.35926758 -395.35928711 30.53103516 -396.54248047 30.70800781 C-422.83643574 34.8223034 -451.74973756 43.69371982 -468.1875 66.1875 C-483.261868 89.08347403 -485.57841774 115.52904561 -485.60546875 142.3203125 C-485.60879715 143.52791229 -485.61212555 144.73551208 -485.61555481 145.97970581 C-485.62058778 148.53610865 -485.62296427 151.09251799 -485.62280273 153.64892578 C-485.62493562 157.38717008 -485.64297867 161.12509115 -485.66210938 164.86328125 C-485.70934314 184.8200768 -484.85464814 204.69948278 -483.86647797 224.62811565 C-483.3884283 234.27827154 -482.95686648 243.93032013 -482.52713776 253.58272743 C-479.65026149 317.97416499 -476.36786958 382.34201164 -472.98747635 446.7084465 C-471.9159617 467.11358977 -470.86459146 487.51967549 -469.8308413 507.92676616 C-469.65860496 511.32529973 -469.48598691 514.72381391 -469.31340027 518.12232971 C-468.23299098 539.40329459 -468.23299098 539.40329459 -467.75222778 548.98483276 C-466.08654962 582.37468991 -466.08654962 582.37468991 -463.85083008 615.72973633 C-463.27311105 623.39888957 -462.89702291 631.07573621 -462.54611206 638.75808716 C-462.35340434 642.95764267 -462.14749859 647.15655186 -461.94140625 651.35546875 C-461.90028214 652.1944017 -461.85915802 653.03333466 -461.81678772 653.89768982 C-461.39432214 662.414565 -460.90052939 670.92642636 -460.375 679.4375 C-460.29572266 680.75008789 -460.21644531 682.06267578 -460.13476562 683.41503906 C-459.77450458 689.1232088 -459.25909081 694.71361797 -458.4375 700.375 C-458.25114844 703.43533922 -458.16450021 706.49835445 -458.0625 709.5625 C-457.6692366 719.35467099 -456.68850792 729.03645393 -455.58764648 738.77148438 C-454.77366936 746.03151735 -454.12567976 753.2751093 -453.625 760.5625 C-452.55568641 775.53162778 -450.54179125 790.40577528 -448.64526367 805.2878418 C-448.38817742 807.32075886 -448.13142 809.35371754 -447.875 811.38671875 C-447.7480928 812.38217209 -447.62118561 813.37762543 -447.49043274 814.40324402 C-446.8660572 819.42267613 -446.32895588 824.43117869 -445.9453125 829.47509766 C-445.86869385 830.4599263 -445.7920752 831.44475494 -445.71313477 832.45942688 C-445.5762101 834.30488083 -445.45311732 836.15144205 -445.34741211 837.99894714 C-444.80095327 845.4094936 -442.96188866 851.73319791 -437.75 857.1875 C-421.58508921 867.86244109 -400.16574521 867.07013466 -381.44180298 868.14154053 C-378.8079356 868.29257821 -376.17598165 868.45714248 -373.54324341 868.62857056 C-361.54478154 869.38908907 -349.57857831 869.55325873 -337.55859375 869.578125 C-335.45211772 869.58515177 -333.3456419 869.59223854 -331.23916626 869.59938049 C-324.45110811 869.61897298 -317.66308351 869.62382265 -310.875 869.625 C-309.13128176 869.62566278 -309.13128176 869.62566278 -307.35233688 869.62633896 C-175.19698976 870.49668254 -175.19698976 870.49668254 -44.5 853.4375 C-42.78147861 853.08092768 -41.06272526 852.72547159 -39.34375 852.37109375 C-38.51230469 852.1994873 -37.68085937 852.02788086 -36.82421875 851.85107422 C-34.66808504 851.42099436 -32.51117682 851.02834093 -30.34375 850.66015625 C-19.1140774 848.7314828 -8.31037717 845.75549093 2.5625 842.375 C3.39297852 842.11734863 4.22345703 841.85969727 5.07910156 841.59423828 C24.53398625 835.44266398 43.64329274 827.32657874 59.5625 814.375 C60.90634766 813.30185547 60.90634766 813.30185547 62.27734375 812.20703125 C83.39346956 794.34454578 93.45877615 767.81469204 98.5625 741.375 C98.71589844 740.61475021 98.86929688 739.85450043 99.02734375 739.07121277 C100.56664165 731.12790648 101.45126121 723.15601115 102.171875 715.1015625 C102.23742332 714.37318806 102.30297165 713.64481361 102.37050629 712.89436722 C103.90675113 695.35525215 103.95327671 677.85873883 103.82860184 660.26546478 C103.80669091 656.84249153 103.79626476 653.41951596 103.78550434 649.99649239 C103.96432272 609.83832029 103.96432272 609.83832029 101.82348633 569.77099609 C101.2814276 562.71764067 101.04842797 555.64416824 100.74655151 548.57717896 C100.13370877 534.32300748 99.43250803 520.09995993 98.24462891 505.88061523 C97.63576843 498.57489711 97.20147464 491.27451783 96.90405273 483.94946289 C96.74962597 480.3344547 96.51712093 476.76507024 96.0859375 473.171875 C95.36497473 467.02885007 95.09326862 460.86095357 94.75 454.6875 C90.82049523 387.15636199 85.07417148 319.61485305 78.33522034 252.30867004 C77.7171781 246.08334518 77.16006144 239.85438335 76.62890625 233.62109375 C75.30805766 218.17378401 73.8212134 202.74241242 72.3125 187.3125 C72.23683304 186.5380529 72.16116608 185.7636058 72.08320618 184.96569061 C70.09099045 164.60952097 67.98699001 144.28010057 65.3125 124 C65.1940271 123.09611542 65.0755542 122.19223083 64.95349121 121.26095581 C60.08435088 73.59436487 60.08435088 73.59436487 35.453125 34.63671875 C19.36995261 22.67678005 0.40067685 20.26274827 -19.1015625 20.171875 C-20.67627823 20.16155746 -20.67627823 20.16155746 -22.2828064 20.15103149 C-25.87607196 20.13338988 -29.46919264 20.12749987 -33.0625 20.125 C-34.35478516 20.12332825 -35.64707031 20.12165649 -36.97851562 20.11993408 C-71.03576205 20.10232347 -105.07309869 21.204641 -139.11352539 22.16259766 Z " fill="#020202" transform="translate(721.4375,75.625)"/>
<path d="M0 0 C1.65 0 3.3 0 5 0 C6 1 6 1 6.12304783 2.88781071 C6.12212604 3.72018977 6.12120424 4.55256884 6.12025452 5.41017151 C6.12231651 6.83843262 6.12231651 6.83843262 6.12442017 8.29554749 C6.12082489 9.34858566 6.11722961 10.40162384 6.11352539 11.48657227 C6.11367142 12.58887177 6.11381744 13.69117126 6.1139679 14.82687378 C6.11326821 18.49007092 6.10547324 22.15321794 6.09765625 25.81640625 C6.09579227 28.34846468 6.09436827 30.88052348 6.09336853 33.4125824 C6.08993346 39.40848249 6.08204269 45.40436089 6.07201904 51.40025228 C6.06085677 58.22481058 6.05534717 65.04936972 6.05032361 71.87393486 C6.03986004 85.91596664 6.0222613 99.95798233 6 114 C7.01225143 113.99102692 7.01225143 113.99102692 8.04495239 113.98187256 C9.38225906 113.97489349 9.38225906 113.97489349 10.74658203 113.96777344 C11.62766632 113.96179138 12.50875061 113.95580933 13.41653442 113.949646 C23.83621429 114.15273467 34.32020079 117.38840825 44 121 C44.14695312 120.44054687 44.29390625 119.88109375 44.4453125 119.3046875 C45.96004099 113.88996842 47.8131993 108.64196986 49.9375 103.4375 C50.66259766 101.64119141 50.66259766 101.64119141 51.40234375 99.80859375 C53 97 53 97 55.19140625 96.09765625 C55.78824219 96.06542969 56.38507813 96.03320312 57 96 C58.12451172 97.63378906 58.12451172 97.63378906 59 100 C58.30908203 102.74902344 58.30908203 102.74902344 57.0078125 105.859375 C56.55019531 106.97441406 56.09257813 108.08945312 55.62109375 109.23828125 C55.12738281 110.39714844 54.63367188 111.55601562 54.125 112.75 C53.39603516 114.51150391 53.39603516 114.51150391 52.65234375 116.30859375 C51.4485873 119.21177107 50.23075915 122.10819058 49 125 C49.93626221 125.30091553 50.87252441 125.60183105 51.8371582 125.91186523 C61.40182263 129.20246418 69.41130076 136.52685423 77 143 C82.03983092 138.78521764 86.73793397 134.37836224 91.34057617 129.69360352 C92.03743027 128.98886398 92.73428436 128.28412445 93.45225525 127.55802917 C94.95317704 126.04001152 96.45304604 124.52095235 97.9519558 123.00094795 C101.13794315 119.77273222 104.33339473 116.55395477 107.52830219 113.33457088 C113.46728769 107.34988929 119.40228939 101.36138535 125.32104492 95.35668945 C129.44861373 91.1699166 133.58813049 86.9952975 137.73595619 82.82859612 C139.31419014 81.23858805 140.88786948 79.64404599 142.45693016 78.04498482 C144.64251508 75.81863526 146.84295488 73.60808031 149.04760742 71.40063477 C149.69548218 70.73321259 150.34335693 70.06579041 151.01086426 69.37814331 C151.61206589 68.78236984 152.21326752 68.18659637 152.83268738 67.57276917 C153.35086123 67.04868752 153.86903509 66.52460588 154.40291119 65.98464298 C156 65 156 65 158.19795704 65.33920193 C158.79263122 65.55726529 159.38730539 65.77532866 160 66 C160 70 160 70 158.870224 71.60406494 C158.07582664 72.38061432 158.07582664 72.38061432 157.26538086 73.17285156 C156.66733139 73.76737122 156.06928192 74.36189087 155.45310974 74.97442627 C154.79698196 75.60677185 154.14085419 76.23911743 153.46484375 76.890625 C152.79336807 77.55406921 152.1218924 78.21751343 151.43006897 78.90106201 C149.27510154 81.02699743 147.10701714 83.13892346 144.9375 85.25 C142.79551919 87.34922333 140.65643292 89.45131084 138.51991272 91.55609131 C137.19017357 92.86445487 135.85692905 94.16926935 134.51951599 95.4697876 C131.41662037 98.50770309 128.44256261 101.58975552 125.609375 104.88183594 C121.55518183 109.58258634 117.18662993 113.93883378 112.78515625 118.3125 C111.92941513 119.16682617 111.07367401 120.02115234 110.19200134 120.90136719 C107.48452619 123.60328862 104.77357746 126.30169359 102.0625 129 C100.21526325 130.84221577 98.36825573 132.68466143 96.52148438 134.52734375 C92.01696997 139.02089061 87.50960595 143.5115632 83 148 C85.52790469 151.8161575 88.12072323 155.53172301 90.875 159.1875 C95.23580569 165.13775824 98.70665501 171.41331002 102 178 C108.3980069 176.11700935 114.18418806 173.04196685 120.09960938 170.01367188 C120.91365234 169.61341797 121.72769531 169.21316406 122.56640625 168.80078125 C123.29802979 168.43122314 124.02965332 168.06166504 124.78344727 167.6809082 C127.52083668 166.84000292 129.27267642 167.24845087 132 168 C132 169.32 132 170.64 132 172 C123.42 175.96 114.84 179.92 106 184 C107.44267362 190.52159627 107.44267362 190.52159627 109.0625 197 C110.98826947 204.67275081 111 212.0480564 111 220 C148.95 220 186.9 220 226 220 C226.33 221.65 226.66 223.3 227 225 C226 226 226 226 224.08095455 226.12304783 C223.2338268 226.12212604 222.38669905 226.12120424 221.51390076 226.12025452 C220.54489838 226.12162918 219.575896 226.12300385 218.57752991 226.12442017 C217.50579025 226.12082489 216.4340506 226.11722961 215.32983398 226.11352539 C213.64712402 226.11374443 213.64712402 226.11374443 211.93041992 226.1139679 C208.20229189 226.1132682 204.47421311 226.10547315 200.74609375 226.09765625 C198.16919482 226.09579227 195.59229553 226.09436827 193.01539612 226.09336853 C186.91324885 226.08993342 180.81112206 226.0820426 174.70898253 226.07201904 C167.7635075 226.06085689 160.81803165 226.0553472 153.87254989 226.05032361 C139.58169034 226.03985996 125.2908458 226.02226115 111 226 C111.01522705 227.08357788 111.0304541 228.16715576 111.04614258 229.28356934 C111.05846092 230.72745469 111.07040387 232.17134329 111.08203125 233.61523438 C111.09302856 234.32677673 111.10402588 235.03831909 111.11535645 235.77142334 C111.15317388 242.04821704 109.96578677 247.54065543 108 253.5 C107.71382812 254.42941406 107.42765625 255.35882812 107.1328125 256.31640625 C106.44158747 258.5513672 105.73120274 260.77786967 105 263 C105.72993164 263.13051758 106.45986328 263.26103516 107.21191406 263.39550781 C111.59291384 264.34536381 115.60863556 266.06116772 119.75 267.75 C121.06291016 268.25273438 121.06291016 268.25273438 122.40234375 268.765625 C124.73254014 269.7193798 126.88170266 270.6380717 129 272 C130.078125 274.765625 130.078125 274.765625 130 277 C126.17950735 278.46240849 124.02736262 277.49051262 120.359375 275.91015625 C118.75449219 275.22856445 118.75449219 275.22856445 117.1171875 274.53320312 C116.00601562 274.04787109 114.89484375 273.56253906 113.75 273.0625 C112.62335938 272.58103516 111.49671875 272.09957031 110.3359375 271.60351562 C107.55277356 270.4124158 104.77457241 269.210947 102 268 C101.73497681 268.87446777 101.73497681 268.87446777 101.46459961 269.76660156 C99.96737511 274.50740619 98.33352319 278.57803635 95.5625 282.75 C94.98628906 283.63171875 94.41007812 284.5134375 93.81640625 285.421875 C91.97442723 288.03629683 90.02501951 290.52547066 88 293 C89.33939592 295.9833244 90.80743759 298.04892391 93.13249207 300.33935547 C93.77616226 300.97854919 94.41983246 301.61774292 95.08300781 302.27630615 C95.78804443 302.966297 96.49308105 303.65628784 97.21948242 304.3671875 C97.96265213 305.1026178 98.70582184 305.8380481 99.47151184 306.59576416 C101.08454699 308.19115131 102.69977155 309.78432716 104.31691551 311.37554932 C106.87232578 313.89159737 109.42019135 316.41505319 111.96589661 318.94091797 C119.20420775 326.12111775 126.45208231 333.29154769 133.71459961 340.44726562 C138.1559713 344.82437387 142.58521627 349.21344275 147.00692177 353.6104126 C148.69728107 355.28646838 150.39230859 356.95782921 152.09197044 358.62445068 C154.46232246 360.94934303 156.81702762 363.28905035 159.16870117 365.6328125 C159.87981049 366.32280334 160.5909198 367.01279419 161.32357788 367.72369385 C161.9587886 368.36288757 162.59399933 369.0020813 163.24845886 369.66064453 C163.80723315 370.21221222 164.36600744 370.76377991 164.94171429 371.33206177 C166 373 166 373 165.67197132 375.20870972 C165.45022079 375.79983551 165.22847025 376.3909613 165 377 C161 377 161 377 159.30527115 375.79746246 C158.74113384 375.22963799 158.17699654 374.66181351 157.59576416 374.07678223 C156.94237564 373.42889236 156.28898712 372.7810025 155.61579895 372.11347961 C154.91017319 371.39347275 154.20454742 370.67346588 153.47753906 369.93164062 C152.72593002 369.18061569 151.97432098 368.42959076 151.19993591 367.6558075 C148.71223721 365.16531696 146.2390134 362.66094655 143.765625 360.15625 C142.0458553 358.42902189 140.32520168 356.70267346 138.60369873 354.97717285 C134.07060323 350.42878983 129.54964632 345.86852328 125.03106689 341.3057251 C120.41987408 336.65364735 115.7973661 332.01284364 111.17578125 327.37109375 C102.10604394 318.25843045 93.04869364 309.1335571 84 300 C80.6363907 301.58185019 78.69117834 303.23459592 76.1875 306 C69.45745615 312.92072842 60.78272643 318.9515392 52 323 C54.07685459 329.44918004 56.44425766 335.71340808 59.01171875 341.984375 C59.96096857 344.88090013 60.20673477 346.98278981 60 350 C58.35 350 56.7 350 55 350 C53.4943349 346.37732706 51.99643454 342.75149451 50.5 339.125 C49.85611328 337.57619141 49.85611328 337.57619141 49.19921875 335.99609375 C48.59013672 334.51689453 48.59013672 334.51689453 47.96875 333.0078125 C47.59169922 332.09660645 47.21464844 331.18540039 46.82617188 330.24658203 C46 328 46 328 46 326 C45.46745605 326.20157715 44.93491211 326.4031543 44.38623047 326.61083984 C31.90396783 331.28732344 20.47574448 335 7 335 C7 371.3 7 407.6 7 445 C5.35 445.33 3.7 445.66 2 446 C1 445 1 445 0.87695217 443.1590414 C0.87787396 442.34878537 0.87879576 441.53852934 0.87974548 440.70372009 C0.87768349 439.31332268 0.87768349 439.31332268 0.87557983 437.89483643 C0.87917511 436.86985046 0.88277039 435.8448645 0.88647461 434.78881836 C0.88632858 433.71577957 0.88618256 432.64274078 0.8860321 431.53718567 C0.88673176 427.97138484 0.89452662 424.40563551 0.90234375 420.83984375 C0.90420774 418.37504607 0.90563173 415.91024801 0.90663147 413.44544983 C0.91045813 406.94346095 0.92028968 400.44149425 0.93133545 393.93951416 C0.94208252 387.31059183 0.94612841 380.68166307 0.95117188 374.05273438 C0.96191181 361.03514676 0.97879903 348.01757456 1 335 C-0.09536072 335.00933563 -1.19072144 335.01867126 -2.3192749 335.02828979 C-3.77241914 335.03584069 -5.22556457 335.04316301 -6.67871094 335.05029297 C-7.39876312 335.05703537 -8.11881531 335.06377777 -8.86068726 335.07072449 C-14.205664 335.09037654 -19.08475749 334.55024304 -24.25 333.125 C-25.30767578 332.86396484 -25.30767578 332.86396484 -26.38671875 332.59765625 C-29.79591723 331.72763395 -32.93869026 330.75157413 -36 329 C-36.25007812 329.82886719 -36.50015625 330.65773438 -36.7578125 331.51171875 C-38.16916053 335.47503257 -39.92314055 339.09380867 -41.875 342.8125 C-42.38353516 343.8324707 -42.38353516 343.8324707 -42.90234375 344.87304688 C-45.50616301 349.83812429 -45.50616301 349.83812429 -48.12939453 350.69799805 C-49.05534424 350.84748901 -49.05534424 350.84748901 -50 351 C-51.10728079 347.03403308 -50.95384772 345.03035089 -49.12890625 341.35546875 C-48.51499023 340.09379883 -48.51499023 340.09379883 -47.88867188 338.80664062 C-47.45103516 337.94232422 -47.01339844 337.07800781 -46.5625 336.1875 C-46.12873047 335.30384766 -45.69496094 334.42019531 -45.24804688 333.50976562 C-44.17753189 331.33344395 -43.09466141 329.16424939 -42 327 C-43.52367187 326.29037109 -43.52367187 326.29037109 -45.078125 325.56640625 C-53.30193366 321.64496068 -60.51656878 317.50026715 -67.546875 311.6875 C-70.05300996 309.62216566 -70.05300996 309.62216566 -74 310 C-75.79724384 311.2074701 -75.79724384 311.2074701 -77.44219971 312.96118164 C-78.43490372 313.94563766 -78.43490372 313.94563766 -79.44766235 314.94998169 C-80.16263885 315.67933929 -80.87761536 316.4086969 -81.61425781 317.16015625 C-82.37562042 317.92093475 -83.13698303 318.68171326 -83.92141724 319.46554565 C-86.44157997 321.98850036 -88.94727143 324.52533907 -91.453125 327.0625 C-93.19531499 328.81214835 -94.93838884 330.56091704 -96.68231201 332.30883789 C-101.27459031 336.91640409 -105.8547317 341.53585545 -110.43249512 346.15783691 C-115.10292827 350.87130714 -119.78684483 355.57136713 -124.46875 360.2734375 C-133.65697586 369.50459002 -142.83281592 378.74795364 -152 388 C-153.32 387.34 -154.64 386.68 -156 386 C-155.41559249 382.62836963 -154.36748427 380.99495996 -151.95652771 378.59576416 C-151.30726318 377.94237564 -150.65799866 377.28898712 -149.98905945 376.61579895 C-149.27264786 375.91017319 -148.55623627 375.20454742 -147.81811523 374.47753906 C-146.6913588 373.3501255 -146.6913588 373.3501255 -145.5418396 372.19993591 C-143.05446839 369.71465655 -140.5566357 367.24017481 -138.05859375 364.765625 C-136.33301148 363.04563725 -134.60808989 361.32498643 -132.88380432 359.60369873 C-128.34147827 355.07283268 -123.79021534 350.55104734 -119.23706055 346.03106689 C-114.59338583 341.41806789 -109.95818117 336.7965756 -105.32226562 332.17578125 C-96.22313482 323.10883503 -87.11482877 314.0511638 -78 305 C-79.63531027 301.56869206 -81.57433176 299.01250389 -84.0625 296.125 C-87.6955387 291.75593239 -90.93431531 287.28324061 -94 282.5 C-94.38551025 281.90074707 -94.77102051 281.30149414 -95.16821289 280.68408203 C-96.77373906 278.13828495 -98.04404979 275.86785063 -99 273 C-103.85994345 273.49845574 -107.55524726 275.0719679 -111.8515625 277.2578125 C-114.34770277 278.1201155 -115.54993555 277.87581489 -118 277 C-117.8671875 274.67578125 -117.8671875 274.67578125 -117 272 C-114.3828125 270.41796875 -114.3828125 270.41796875 -111.125 269.1875 C-110.05507813 268.76855469 -108.98515625 268.34960938 -107.8828125 267.91796875 C-105 267 -105 267 -102 267 C-102.40992188 265.82824219 -102.81984375 264.65648437 -103.2421875 263.44921875 C-107.72175962 250.4698038 -110 240.06829584 -110 226 C-147.29 226 -184.58 226 -223 226 C-223 221 -223 221 -222 220 C-220.54518505 219.9043839 -219.08574514 219.87811649 -217.62779236 219.87974548 C-216.68403244 219.87837082 -215.74027252 219.87699615 -214.76791382 219.87557983 C-213.72422638 219.87917511 -212.68053894 219.88277039 -211.60522461 219.88647461 C-210.51267868 219.88632858 -209.42013275 219.88618256 -208.29447937 219.8860321 C-204.66374767 219.88673178 -201.03306654 219.89452671 -197.40234375 219.90234375 C-194.89270557 219.90420774 -192.38306702 219.90563173 -189.87342834 219.90663147 C-183.93065407 219.91006652 -177.98789616 219.91795727 -172.04513031 219.92798096 C-164.61798075 219.94023747 -157.19082895 219.94562208 -149.76367188 219.95117188 C-136.50910527 219.96191189 -123.25455379 219.97879918 -110 220 C-110.00495672 219.3121876 -110.00991344 218.62437519 -110.01502037 217.91571999 C-110.0188756 217.01408812 -110.02273083 216.11245625 -110.02670288 215.1835022 C-110.0316596 214.28943979 -110.03661633 213.39537739 -110.04172325 212.47422218 C-109.99603958 209.76514397 -109.64176712 207.33634379 -108.9765625 204.7109375 C-108.76 203.83179688 -108.5434375 202.95265625 -108.3203125 202.046875 C-108.09085937 201.16515625 -107.86140625 200.2834375 -107.625 199.375 C-107.40328125 198.48554688 -107.1815625 197.59609375 -106.953125 196.6796875 C-106.53592975 195.01090651 -106.11423479 193.34323737 -105.68603516 191.67724609 C-104.77505013 188.12213513 -103.89009939 184.56039755 -103 181 C-109.93 177.7 -116.86 174.4 -124 171 C-123.67 169.35 -123.34 167.7 -123 166 C-117.3365779 166.57733915 -112.72836052 168.70616368 -107.625 171.0625 C-106.79355469 171.43955078 -105.96210938 171.81660156 -105.10546875 172.20507812 C-103.06734412 173.13043356 -101.0324133 174.0621837 -99 175 C-98.5153125 174.10539063 -98.030625 173.21078125 -97.53125 172.2890625 C-93.2857691 164.5845779 -88.69285259 157.74053943 -83 151 C-81.99508204 149.67036935 -80.99434599 148.33755517 -80 147 C-80.58117757 146.42711856 -80.58117757 146.42711856 -81.17409611 145.84266376 C-90.59594265 136.55326127 -100.00099472 127.24714631 -109.38816929 117.92270374 C-113.92824527 113.41398159 -118.47375053 108.91102625 -123.03198242 104.4206543 C-127.42816462 100.08951531 -131.80966035 95.74401514 -136.18122673 91.38803673 C-137.85422619 89.72615028 -139.53251003 88.06956665 -141.21603584 86.4183445 C-143.5676922 84.11004643 -145.90009328 81.78384873 -148.22875977 79.45239258 C-148.93366043 78.76906357 -149.6385611 78.08573456 -150.36482239 77.38169861 C-152.07821537 75.64586266 -153.64743298 74.02942553 -155 72 C-154.92320251 69.03422546 -154.92320251 69.03422546 -154 67 C-150.69498288 67.58369988 -149.06447287 68.56274921 -146.70965576 70.92958069 C-146.0815097 71.55360275 -145.45336365 72.17762482 -144.80618286 72.82055664 C-144.12860931 73.50891602 -143.45103577 74.19727539 -142.75292969 74.90649414 C-142.03058136 75.62840439 -141.30823303 76.35031464 -140.56399536 77.09410095 C-138.17610992 79.48407783 -135.79902831 81.88450847 -133.421875 84.28515625 C-131.7691481 85.94347781 -130.11575798 87.60113864 -128.46173096 89.25816345 C-124.10841424 93.62293905 -119.76418126 97.99664864 -115.42175293 102.37225342 C-110.98972478 106.8349597 -106.5492007 111.28919424 -102.109375 115.74414062 C-93.39789433 124.4878039 -84.6959826 133.24092494 -76 142 C-72.92539192 140.54121142 -70.43164432 138.82451109 -67.78662109 136.67333984 C-62.4322685 132.32609601 -56.96702169 128.61684441 -50.875 125.375 C-49.91630005 124.86138916 -49.91630005 124.86138916 -48.93823242 124.33740234 C-46.09120798 122.86942326 -44.24836969 122 -41 122 C-41.59856812 120.94087402 -41.59856812 120.94087402 -42.20922852 119.86035156 C-44.00639417 116.6638721 -45.78458316 113.45722253 -47.5625 110.25 C-48.19091797 109.13882813 -48.81933594 108.02765625 -49.46679688 106.8828125 C-50.05654297 105.81289063 -50.64628906 104.74296875 -51.25390625 103.640625 C-51.80377197 102.65610352 -52.3536377 101.67158203 -52.92016602 100.65722656 C-54.07174689 97.82344718 -54.13432088 96.78240541 -53 94 C-51.68 94 -50.36 94 -49 94 C-44.41996353 101.8872092 -39.94470614 109.76921892 -36 118 C-34.33271266 117.71190255 -32.6662033 117.41930221 -31 117.125 C-30.071875 116.96257812 -29.14375 116.80015625 -28.1875 116.6328125 C-24.42979655 115.88679784 -20.71665544 114.92916386 -17 114 C-11.39 114 -5.78 114 0 114 C0 76.38 0 38.76 0 0 Z " fill="#FBFBFB" transform="translate(535,287)"/>
<path d="M0 0 C11.96155992 10.83530915 22.88631958 26.28210552 24.09375 42.8671875 C23.84239041 47.93746949 22.42298931 50.63642256 18.8203125 54.16015625 C-9.16225588 77.56952171 -42.81346073 87.68931958 -78.96875 87.4921875 C-79.68742249 87.49003235 -80.40609497 87.4878772 -81.14654541 87.48565674 C-92.19752002 87.4326552 -102.85543726 86.96330837 -113.59375 84.1796875 C-114.29371094 84.00759766 -114.99367188 83.83550781 -115.71484375 83.65820312 C-128.19201233 80.48886886 -139.69003604 75.13488362 -151.25146484 69.58642578 C-152.40469238 69.03325684 -153.55791992 68.48008789 -154.74609375 67.91015625 C-155.77726318 67.40895264 -156.80843262 66.90774902 -157.87084961 66.39135742 C-163.42064455 63.92174097 -168.84652103 63.90018653 -174.83789062 63.75 C-180.06498836 63.51703743 -180.06498836 63.51703743 -182.546875 61.93359375 C-184.95427928 57.9002933 -184.40475916 53.65583421 -183.59375 49.1796875 C-181.5636215 43.55056339 -178.57212693 38.3506683 -175.59375 33.1796875 C-175.00851562 32.15101563 -174.42328125 31.12234375 -173.8203125 30.0625 C-169.79961815 23.39909574 -164.97789934 17.77567223 -159.59375 12.1796875 C-158.78679687 11.32117188 -157.97984375 10.46265625 -157.1484375 9.578125 C-151.7370788 3.96320421 -146.1822943 -0.65808841 -139.59375 -4.8203125 C-138.69140625 -5.40554688 -137.7890625 -5.99078125 -136.859375 -6.59375 C-98.51103001 -30.32826622 -35.25879069 -29.56828966 0 0 Z " fill="#040404" transform="translate(612.59375,473.8203125)"/>
<path d="M0 0 C2.33806357 -0.01415633 4.67609807 -0.03491021 7.01403809 -0.06280518 C30.01981865 -0.31368047 55.61264071 0.54190149 73.15106201 17.65817261 C73.67571045 18.21762573 74.20035889 18.77707886 74.74090576 19.35348511 C75.2552417 19.87168823 75.76957764 20.38989136 76.29949951 20.92379761 C90.01754899 35.67515471 95.05696048 56.66823334 99.18670654 75.79098511 C99.71919162 78.2530835 100.27270365 80.70957327 100.83074951 83.16598511 C102.60440169 91.11345122 104.07331056 99.06617616 105.20184326 107.13082886 C105.39357117 108.49176918 105.39357117 108.49176918 105.58917236 109.88020325 C106.95544177 119.70866334 108.15265587 129.55309989 109.24090576 139.41598511 C109.3472937 140.37617554 109.45368164 141.33636597 109.56329346 142.32565308 C112.12278823 165.7480397 113.45812473 189.24183244 114.5713501 212.77194214 C114.66426588 214.73461243 114.75797563 216.69724797 114.85542297 218.65969849 C115.55250226 232.70232237 115.98489406 246.73386403 116.24090576 260.79098511 C116.28134579 262.90011999 116.32200107 265.00925076 116.362854 267.11837769 C116.47031915 272.70914744 116.57396695 278.29998179 116.67678833 283.89083862 C116.76321991 288.55855549 116.85229886 293.2262206 116.94123077 297.89389038 C117.42331509 323.25300204 117.84901919 348.61175675 118.16111374 373.97351456 C119.02010503 443.50646242 122.13908074 513.03469258 128.4274292 582.30123901 C129.58390699 595.06800802 130.4237506 607.82842967 131.09320068 620.62936401 C131.50604545 628.49088611 132.03326583 636.32547077 132.74090576 644.16598511 C133.08776269 648.22744578 133.41807233 652.2900477 133.74090576 656.35348511 C133.88060791 658.07994263 133.88060791 658.07994263 134.02313232 659.84127808 C135.83432554 683.469675 135.95675577 707.11404736 135.98677826 730.79862976 C135.99086084 733.32567662 135.99836867 735.85269378 136.0065918 738.37973022 C136.13661868 784.31913124 136.13661868 784.31913124 131.49090576 804.29098511 C131.27619629 805.24207153 131.06148682 806.19315796 130.840271 807.17306519 C128.91839724 815.30608238 126.25645729 822.77251373 122.74090576 830.35348511 C122.27942139 831.40664917 121.81793701 832.45981323 121.34246826 833.54489136 C112.10800748 853.51887697 94.77617851 866.5133207 74.50262451 873.98629761 C73.55202148 874.3290271 73.55202148 874.3290271 72.58221436 874.67868042 C70.87824448 875.30315307 69.1931769 875.97856545 67.51043701 876.65817261 C54.14228728 881.70453159 39.81283455 883.31668366 25.74090576 885.35348511 C24.55996338 885.52734741 23.379021 885.70120972 22.16229248 885.88034058 C13.29543051 887.15270982 4.41225622 888.15829609 -4.49755859 889.06906128 C-6.41837322 889.26689521 -8.33880068 889.46850968 -10.25891113 889.67306519 C-79.17808975 897.01111195 -148.58946445 895.83643835 -217.6852417 891.56887817 C-223.90894329 891.19378095 -230.13485886 890.85961765 -236.36065674 890.52145386 C-245.36783965 890.02670416 -254.37491326 889.53040292 -263.38018799 889.00192261 C-264.28431427 888.95097946 -265.18844055 888.90003632 -266.1199646 888.84754944 C-266.96308197 888.79714005 -267.80619934 888.74673065 -268.67486572 888.6947937 C-269.39609116 888.65276825 -270.11731659 888.6107428 -270.86039734 888.56744385 C-272.78163562 888.39607342 -274.69516547 888.13917536 -276.60290527 887.85447693 C-280.20368523 887.36107756 -283.71156597 887.13226233 -287.34234619 886.99630737 C-288.01361542 886.97011322 -288.68488464 886.94391907 -289.37649536 886.91693115 C-290.82553995 886.86080622 -292.27464844 886.80631151 -293.7238102 886.75329781 C-296.04620644 886.66809998 -298.36837146 886.57804238 -300.6905365 886.48677063 C-307.29118295 886.22828898 -313.89217176 885.97901421 -320.4932251 885.73117065 C-340.12222512 884.99146167 -359.68596886 884.07203382 -379.25909424 882.35348511 C-380.81333467 882.22239276 -382.36761241 882.09174163 -383.92193604 881.9616394 C-387.76569638 881.63575447 -391.60615668 881.27907348 -395.44659424 880.91598511 C-396.68216064 880.80705933 -397.91772705 880.69813354 -399.19073486 880.58590698 C-422.24582426 878.40453156 -447.37111976 874.02643836 -465.25909424 858.35348511 C-466.27423096 857.49690308 -466.27423096 857.49690308 -467.30987549 856.62301636 C-491.13961656 834.92175701 -492.05901472 795.10828691 -494.25909424 765.35348511 C-494.39587428 763.53442705 -494.39587428 763.53442705 -494.53541756 761.67862034 C-495.62319035 745.39691511 -495.37337625 729.07148416 -495.33118272 712.76306069 C-495.32058048 708.2097112 -495.31604223 703.65635514 -495.31085205 699.10299683 C-495.30117546 691.20780725 -495.28813829 683.31262917 -495.27312851 675.41744804 C-495.24946385 662.80377144 -495.23666459 650.19009368 -495.22543335 637.57640076 C-495.22143135 633.22674842 -495.21736234 628.87709614 -495.213274 624.52744389 C-495.21225477 623.43992732 -495.21123555 622.35241076 -495.21018543 621.23193915 C-495.19845453 608.86433069 -495.18458985 596.49672495 -495.16973877 584.12911987 C-495.16771012 582.43609619 -495.16771012 582.43609619 -495.16564049 580.70887 C-495.14646463 564.90486592 -495.12173518 549.10087726 -495.09361663 533.29688676 C-495.04519957 505.9811264 -495.01086182 478.66538226 -495.00128174 451.34957886 C-495.00087761 450.28549582 -495.00047348 449.22141279 -495.0000571 448.12508482 C-494.97823799 384.82057887 -495.50380514 321.60416264 -497.70624733 258.3338747 C-498.7481062 228.15182265 -499.39770833 197.93711789 -499.46221924 167.73629761 C-499.46504662 166.76684078 -499.46787399 165.79738396 -499.47078705 164.79854965 C-499.48530269 159.71627332 -499.49483659 154.63402206 -499.49932861 149.55172729 C-499.5037795 145.46342367 -499.51798609 141.37532331 -499.54034424 137.28707886 C-499.96330534 58.19064985 -499.96330534 58.19064985 -479.40362549 36.37301636 C-466.14093446 23.88337836 -447.97487569 17.45173122 -430.57159424 13.29098511 C-429.49506592 13.03349487 -428.4185376 12.77600464 -427.30938721 12.51071167 C-417.14500179 10.17362873 -406.94618982 8.74341856 -396.57598877 7.70187378 C-394.10730178 7.44257624 -391.65032608 7.15469388 -389.18829346 6.84298706 C-375.82983426 5.20895181 -362.58083746 5.001771 -349.13409424 5.04098511 C-347.37428223 5.04172531 -347.37428223 5.04172531 -345.57891846 5.04248047 C-320.88379034 5.07377633 -296.29604665 6.35598302 -271.6516571 7.82420349 C-261.24919461 8.43478777 -250.84997719 8.81395896 -240.43292236 9.06222534 C-235.5127601 9.18478238 -230.65024475 9.38513208 -225.75128174 9.86520386 C-216.75238431 10.66295505 -207.72349166 10.54958725 -198.69659424 10.54098511 C-197.72210327 10.54104553 -196.7476123 10.54110596 -195.74359131 10.54116821 C-168.62401657 10.5174979 -141.49884837 9.40951542 -114.4800415 7.03585815 C-106.92684922 6.37229926 -99.37768828 5.969793 -91.80059814 5.69503784 C-90.99670654 5.66353638 -90.19281494 5.63203491 -89.36456299 5.59957886 C-88.31498413 5.56368652 -88.31498413 5.56368652 -87.24420166 5.52706909 C-85.24202618 5.40475931 -85.24202618 5.40475931 -83.27789307 4.85568237 C-81.09550577 4.31279077 -79.09844288 4.16298587 -76.85284424 4.07223511 C-76.02655518 4.03485229 -75.20026611 3.99746948 -74.34893799 3.95895386 C-71.75909424 3.85348511 -71.75909424 3.85348511 -69.16925049 3.74801636 C-68.34296143 3.71063354 -67.51667236 3.67325073 -66.66534424 3.63473511 C-65.54095947 3.58929565 -65.54095947 3.58929565 -64.39385986 3.54293823 C-62.27900452 3.41251779 -62.27900452 3.41251779 -60.35430908 2.86935425 C-41.61214083 -1.7452113 -19.12780918 0.10524085 0 0 Z M-78.78681946 10.24284363 C-88.80535063 11.15093784 -98.82784131 11.97251518 -108.86076355 12.70806885 C-114.35848426 13.11382882 -119.84138015 13.59256604 -125.32579041 14.14990234 C-147.17082159 16.36776627 -169.06651913 16.58816701 -191.00909424 16.60348511 C-191.68897778 16.60451611 -192.36886131 16.6055471 -193.06934738 16.60660934 C-226.25587301 16.65355562 -259.31629759 15.09836105 -292.42315674 12.79098511 C-299.96719184 12.2785016 -307.51383537 12.00373866 -315.07159424 11.79098511 C-315.79398285 11.77047089 -316.51637146 11.74995667 -317.26065063 11.7288208 C-401.2940814 7.41964979 -401.2940814 7.41964979 -475.25909424 40.35348511 C-498.64892507 64.71789222 -493.76107804 106.56142509 -493.64500809 137.69888687 C-493.63397129 141.01543051 -493.62875301 144.33193913 -493.62503052 147.64849854 C-493.5623823 193.96176862 -492.42636458 240.24344625 -491.1126976 286.53564453 C-490.85191516 295.75581793 -490.5981863 304.97618471 -490.34619141 314.19660187 C-490.26439247 317.16144771 -490.1801202 320.12621291 -490.09527588 323.0909729 C-488.86490469 366.74406272 -489.10631774 410.42045648 -489.13052434 454.086528 C-489.13429856 461.6808893 -489.1329362 469.27523757 -489.12872314 476.86959839 C-489.08343131 560.48959293 -489.08343131 560.48959293 -489.89390564 593.55387878 C-490.42723035 615.49898212 -490.44643866 637.44453225 -490.44439697 659.39523315 C-490.44431545 664.16447723 -490.45133022 668.93362575 -490.46490479 673.70285034 C-490.53458101 698.62227182 -490.41356658 723.50082461 -489.33331299 748.40036011 C-489.27088944 749.84936486 -489.27088944 749.84936486 -489.20720482 751.32764244 C-488.53915618 766.42236515 -487.48327342 781.39709308 -485.25909424 796.35348511 C-485.04664063 797.81745728 -485.04664063 797.81745728 -484.82989502 799.31100464 C-481.58574866 820.9876378 -475.96990672 843.38999234 -457.62237549 857.36129761 C-454.8922738 859.1605943 -452.12802259 860.78605094 -449.25909424 862.35348511 C-448.46503174 862.80336792 -447.67096924 863.25325073 -446.85284424 863.71676636 C-440.94992478 866.73360653 -434.79009362 868.4086776 -428.38409424 869.97848511 C-427.60179443 870.17265015 -426.81949463 870.36681519 -426.01348877 870.56686401 C-409.77911945 874.31032606 -393.10197164 875.84918728 -376.50909424 876.91598511 C-375.5910199 876.97762848 -374.67294556 877.03927185 -373.72705078 877.1027832 C-356.27470556 878.26660525 -338.81541001 878.86268302 -321.33441162 879.40011597 C-301.27954926 880.0261241 -281.27802646 881.0986864 -261.25909424 882.41598511 C-260.58187569 882.4602702 -259.90465714 882.50455528 -259.20691681 882.55018234 C-254.7030831 882.84480804 -250.19971109 883.14576452 -245.69659424 883.45114136 C-244.5678891 883.52712555 -243.43918396 883.60310974 -242.27627563 883.68139648 C-237.73672432 883.99706108 -233.2122698 884.33362041 -228.69219971 884.86276245 C-194.48277574 888.85257796 -159.40806525 888.6480235 -125.00909424 888.60348511 C-124.22811623 888.60301807 -123.44713821 888.60255104 -122.6424942 888.60206985 C-105.6632559 888.59128162 -88.6956113 888.41282609 -71.72393799 887.88864136 C-70.42909485 887.84882141 -69.13425171 887.80900146 -67.8001709 887.76797485 C-58.63287518 887.45826586 -49.50606189 886.90628727 -40.37628174 886.01754761 C-34.44681675 885.45580882 -28.51394876 884.94385442 -22.57940674 884.43942261 C48.53227108 880.63848345 48.53227108 880.63848345 107.55340576 845.22848511 C116.45774996 833.59565379 121.18307582 820.40936948 124.74090576 806.35348511 C125.03739014 805.23200073 125.33387451 804.11051636 125.63934326 802.95504761 C131.36342053 780.0020645 130.9528563 755.85566139 130.92840576 732.35348511 C130.92780151 731.26411652 130.92719727 730.17474792 130.92657471 729.05236816 C130.87961906 697.56774997 128.61743393 666.36160167 126.15008545 634.9850769 C125.3288933 624.5012165 124.5376373 614.02722047 124.08561707 603.51983643 C123.90015611 599.44028249 123.52481965 595.44405431 122.98603821 591.39157104 C122.54531761 587.7273215 122.34769094 584.04817781 122.12762451 580.36520386 C122.04627007 579.06165199 122.04627007 579.06165199 121.96327209 577.73176575 C121.78270593 574.83497508 121.60543897 571.9379937 121.42840576 569.04098511 C120.60584658 555.68017623 119.75579321 542.32375927 118.76043701 528.97457886 C113.76923906 461.51970953 112.47935346 393.99364918 111.49876022 326.38240051 C110.95683606 289.02187271 110.30590244 251.68748099 108.74090576 214.35348511 C108.70201233 213.40006226 108.6631189 212.4466394 108.62304688 211.46432495 C107.67942435 188.35674163 106.14498405 165.35649221 103.74090576 142.35348511 C103.62634033 141.24940308 103.5117749 140.14532104 103.39373779 139.00778198 C102.62590497 131.77299144 101.73399952 124.560725 100.74090576 117.35348511 C100.57896729 116.17673218 100.41702881 114.99997925 100.25018311 113.78756714 C93.81628208 61.00429093 93.81628208 61.00429093 65.74090576 18.35348511 C47.71637625 6.38617844 25.7994443 4.90468112 4.74090576 4.85348511 C3.91750702 4.84947693 3.09410828 4.84546875 2.24575806 4.84133911 C-24.82258369 4.81039845 -51.85491986 7.79601187 -78.78681946 10.24284363 Z " fill="#F1F3F4" transform="translate(719.2590942382813,70.64651489257813)"/>
<path d="M0 0 C1.22356201 -0.00340393 2.44712402 -0.00680786 3.70776367 -0.01031494 C28.0703167 -0.05030462 52.52209655 0.62260271 71.9375 17.3125 C81.31488382 28.29795156 86.46805833 40.43473333 89.9375 54.3125 C90.26492188 55.5396875 90.59234375 56.766875 90.9296875 58.03125 C99.6548905 91.7387995 101.83022215 127.69236384 105.15756226 162.30513 C105.53330413 166.20596344 105.91344757 170.10636872 106.29296875 174.00683594 C106.82722354 179.50195633 107.35964964 184.99724861 107.88990974 190.49275589 C108.66436402 198.51738036 109.45359367 206.54040737 110.25390625 214.5625 C115.79617524 270.36017805 120.20158305 326.27157981 124.58069611 382.17049408 C124.80983607 385.09104627 125.04013045 388.01150544 125.27069092 390.9319458 C128.18689859 427.92127529 128.18689859 427.92127529 128.65353394 441.79927063 C128.80750837 446.31335558 129.16671732 450.75009056 129.69873047 455.235672 C130.0185167 458.0171869 130.21840514 460.80022461 130.40234375 463.59375 C130.47912354 464.74842773 130.55590332 465.90310547 130.63500977 467.09277344 C130.71420654 468.3202832 130.79340332 469.54779297 130.875 470.8125 C130.95999756 472.11477539 131.04499512 473.41705078 131.13256836 474.75878906 C131.35859023 478.23525418 131.5809545 481.71194384 131.80212402 485.1887207 C131.93651814 487.29709657 132.07214405 489.40539025 132.20800781 491.51367188 C133.19681189 506.90018479 134.11383935 522.27965027 134.59594727 537.69238281 C134.75293823 542.4960653 134.99707832 547.2635079 135.4296875 552.05078125 C137.7525253 578.71524651 137.08458758 605.78391615 137.16867065 632.53179932 C137.17957746 635.91773634 137.19722794 639.30352316 137.22122192 642.68939209 C137.33921256 660.19381857 137.11969862 677.55665718 135.5390625 695 C135.47578011 695.69868572 135.41249771 696.39737144 135.34729767 697.11722946 C132.06514122 732.44323083 122.26699946 770.17373458 93.81347656 793.79931641 C86.6615623 799.46939233 79.0617684 804.14937058 70.9375 808.3125 C70.29474121 808.6434668 69.65198242 808.97443359 68.98974609 809.31542969 C44.34937398 821.83022379 18.20675749 828.00685258 -8.86376953 832.70581055 C-11.40270711 833.18735992 -13.90159209 833.73049415 -16.41796875 834.3125 C-20.75841791 835.2869172 -25.07509842 835.92151012 -29.4921875 836.42578125 C-30.29498642 836.52039642 -31.09778534 836.6150116 -31.9249115 836.7124939 C-34.59502884 837.02360903 -37.2660623 837.32544275 -39.9375 837.625 C-40.87467865 837.73099518 -41.8118573 837.83699036 -42.7774353 837.94619751 C-81.01838976 842.24121669 -119.44222276 845.5969857 -157.89990234 847.10205078 C-161.48458705 847.24388617 -165.06769006 847.40596049 -168.65087891 847.58154297 C-202.89109425 849.25256375 -237.10951208 849.52664367 -271.38474274 849.5583725 C-274.8250883 849.56244098 -278.26541168 849.56994075 -281.70574951 849.57818604 C-388.30419269 849.80089368 -388.30419269 849.80089368 -405.0625 836.3125 C-411.10195271 829.93752213 -411.51217636 822.6696295 -412.3125 814.3125 C-412.56595066 811.80450925 -412.82134147 809.2967142 -413.078125 806.7890625 C-413.14994995 806.08278717 -413.2217749 805.37651184 -413.29577637 804.64883423 C-413.98009818 797.97687541 -414.72910333 791.31269192 -415.484375 784.6484375 C-418.21325311 760.5338876 -420.81154778 736.43629135 -422.79736328 712.2487793 C-423.01398381 709.84979668 -423.28026763 707.47574594 -423.60546875 705.08984375 C-424.29289171 699.40832239 -424.44860619 693.71756651 -424.66796875 688.00195312 C-424.70535156 687.11314453 -424.74273437 686.22433594 -424.78125 685.30859375 C-424.81154297 684.51638428 -424.84183594 683.7241748 -424.87304688 682.90795898 C-425.03734528 680.20757958 -425.03734528 680.20757958 -425.53735352 677.13598633 C-426.17746811 672.47544023 -426.47137719 667.83477818 -426.74609375 663.140625 C-426.80652359 662.14593201 -426.86695343 661.15123901 -426.92921448 660.12640381 C-427.12214803 656.93859035 -427.31108368 653.75055377 -427.5 650.5625 C-427.62279755 648.52993284 -427.74584275 646.49738062 -427.86914062 644.46484375 C-429.96654107 609.73443553 -431.86801776 574.99262146 -433.75 540.25 C-433.81322826 539.08307995 -433.87645653 537.9161599 -433.9416008 536.71387863 C-436.24881935 494.10493921 -438.46492363 451.49162637 -440.625 408.875 C-440.66185 408.14800557 -440.69870001 407.42101114 -440.73666668 406.67198658 C-443.05019808 361.01788517 -445.29940873 315.36084237 -447.46508789 269.69946289 C-447.60467443 266.75863971 -447.74428414 263.81781762 -447.88392448 260.87699699 C-447.97371058 258.98505092 -448.06338926 257.09309974 -448.15295601 255.20114326 C-448.69807944 243.69584276 -449.27099538 232.1924289 -449.87513733 220.69007874 C-451.24693879 194.56527285 -452.23576327 168.50199805 -452.19287109 142.33447266 C-452.18743579 138.39091266 -452.19289973 134.44746317 -452.19921875 130.50390625 C-452.19855894 127.94270809 -452.1972798 125.38150999 -452.1953125 122.8203125 C-452.19733673 121.66798126 -452.19936096 120.51565002 -452.20144653 119.32839966 C-452.1701883 108.32300452 -451.71610612 97.32501673 -449.625 86.5 C-449.48940674 85.77699707 -449.35381348 85.05399414 -449.21411133 84.30908203 C-448.83582635 82.30915678 -448.44952147 80.31075296 -448.0625 78.3125 C-447.92070312 77.47074219 -447.77890625 76.62898438 -447.6328125 75.76171875 C-445.5002055 64.20647064 -440.35032269 53.44322039 -433.0625 44.3125 C-432.39154297 43.39791016 -432.39154297 43.39791016 -431.70703125 42.46484375 C-414.32071634 20.08187529 -381.34379329 13.00391886 -354.90356445 9.66040039 C-353.45663857 9.48116011 -352.00961783 9.30268391 -350.5625 9.125 C-349.53979507 8.9978511 -349.53979507 8.9978511 -348.49642944 8.86813354 C-330.09139903 6.60937081 -311.73043694 6.15653982 -293.20144653 5.92462158 C-286.13804444 5.83449507 -279.0748949 5.72727066 -272.01171875 5.62109375 C-271.23820509 5.60954758 -270.46469143 5.5980014 -269.66773796 5.58610535 C-248.88989101 5.27505311 -228.11329215 4.89794211 -207.33695984 4.49914932 C-205.19207543 4.4579811 -203.04718812 4.41696343 -200.90229797 4.37609482 C-174.11784688 3.86514848 -147.33747695 3.26568222 -120.55859375 2.515625 C-119.33320389 2.48132448 -118.10781403 2.44702396 -116.84529114 2.41168404 C-111.91450715 2.27347125 -106.983734 2.13487654 -102.05296707 1.99605656 C-31.8476645 0.02055011 -31.8476645 0.02055011 0 0 Z M-85.375 7.25 C-86.65413647 7.28262184 -86.65413647 7.28262184 -87.95911407 7.31590271 C-104.44607601 7.73921999 -120.92994205 8.20985773 -137.41015625 8.84765625 C-149.66774787 9.3218068 -161.92279185 9.6038029 -174.1875 9.8125 C-176.49959335 9.85423439 -178.81168643 9.89598299 -181.1237793 9.93774414 C-195.71096618 10.19346173 -210.29810773 10.37735692 -224.88671875 10.52734375 C-294.1787397 10.21075751 -294.1787397 10.21075751 -363.0625 16.3125 C-363.78614746 16.41643066 -364.50979492 16.52036133 -365.25537109 16.62744141 C-388.24554965 20.04603452 -409.76879644 28.61398393 -426.0625 45.3125 C-426.66578125 45.89515625 -427.2690625 46.4778125 -427.890625 47.078125 C-447.05044575 67.04467504 -446.62736071 102.7887642 -446.4375 128.5 C-446.43218262 129.69036865 -446.42686523 130.8807373 -446.42138672 132.10717773 C-445.99859063 215.71781409 -440.41138072 299.34146527 -435.45386606 395.71139526 C-435.15366371 401.5397674 -434.85406892 407.36817048 -434.55487061 413.19659424 C-433.53224697 433.11575384 -432.5047308 453.0346532 -431.46989441 472.95318222 C-431.32472855 475.74764886 -431.17975998 478.54212561 -431.0349884 481.3366127 C-429.34737442 513.91099813 -427.55485327 546.47568205 -425.56343174 579.03294468 C-425.06658141 587.18215991 -424.59997755 595.33289355 -424.1429081 603.48442268 C-423.09467309 622.1630276 -421.91602159 640.83244454 -420.6875 659.5 C-420.63372822 660.31780064 -420.57995644 661.13560127 -420.52455521 661.97818375 C-417.184627 714.42267652 -417.184627 714.42267652 -411.63256836 766.66601562 C-410.55876736 774.956613 -409.65075021 783.24959609 -408.83984375 791.5703125 C-408.62571381 793.72844855 -408.41143935 795.88657027 -408.19702148 798.04467773 C-407.87897684 801.25062935 -407.56648069 804.45659584 -407.27224731 807.66482544 C-406.99839516 810.64668277 -406.70415283 813.62593211 -406.40625 816.60546875 C-406.33023056 817.49771149 -406.25421112 818.38995422 -406.17588806 819.30923462 C-405.62066645 824.63739645 -404.59410209 828.0726955 -401.0625 832.3125 C-371.41494944 853.48932183 -308.41196412 843.47637517 -273.8762207 843.44287109 C-267.95030123 843.43718423 -262.02442676 843.44055682 -256.09850883 843.44630814 C-224.7115886 843.47325574 -224.7115886 843.47325574 -193.33203125 842.8671875 C-192.65184118 842.84777225 -191.97165112 842.82835701 -191.27084923 842.80835342 C-184.53579874 842.60858423 -177.86327801 842.26659274 -171.16505432 841.53125 C-168.43463099 841.24717643 -165.71631775 841.13626201 -162.97265625 841.06640625 C-161.3330896 841.01963745 -161.3330896 841.01963745 -159.66040039 840.97192383 C-158.49371826 840.93993896 -157.32703613 840.9079541 -156.125 840.875 C-103.88675361 839.16406092 -51.45964545 835.07309259 -0.0625 825.3125 C1.16355957 825.08175781 2.38961914 824.85101562 3.65283203 824.61328125 C40.47583677 817.53090237 84.43300487 803.83378517 106.59790039 771.21289062 C111.11186808 764.25684634 114.74743789 756.96864906 117.9375 749.3125 C118.25702637 748.55171143 118.57655273 747.79092285 118.90576172 747.00708008 C124.87941171 732.49784739 127.34557862 717.35451376 129.07421875 701.828125 C129.20600053 700.64493085 129.20600053 700.64493085 129.34044456 699.43783379 C131.48900609 679.55138645 131.43665342 659.70798221 131.27044678 639.7298584 C131.24321872 635.92817132 131.23465125 632.12654659 131.22674751 628.3247776 C131.18630064 609.30475366 130.96176538 590.2914542 130.48046875 571.27734375 C130.46140284 570.49465181 130.44233692 569.71195988 130.42269325 568.90555 C130.2217889 560.87022388 129.91955207 552.87293835 129.15776062 544.866745 C128.76528632 540.31542979 128.69204414 535.75242458 128.5625 531.1875 C128.1046918 517.32631619 127.08641155 503.51411461 126.04150391 489.68701172 C125.41802987 481.3849937 124.85161391 473.09030616 124.46875 464.7734375 C123.93074154 453.23551773 123.07488334 441.72312297 122.22393799 430.20471191 C121.93163347 426.23278365 121.64452967 422.2604971 121.35888672 418.28808594 C120.70822496 409.25376951 120.04519656 400.22038761 119.375 391.1875 C119.28338844 389.95273045 119.28338844 389.95273045 119.18992615 388.69301605 C116.81737496 356.77294727 114.1964137 324.87501342 111.48833084 292.98178864 C111.18922106 289.457777 110.89092864 285.93369687 110.59274292 282.40960693 C110.1182122 276.80653742 109.64066643 271.20373242 109.16068077 265.60112762 C108.98410975 263.53775571 108.80820042 261.47432704 108.63303566 259.41083527 C107.68872081 248.30283709 106.64081736 237.21858496 105.37280273 226.1427002 C104.86043507 221.63441074 104.40887239 217.12342413 103.9921875 212.60546875 C103.87253128 211.33125313 103.87253128 211.33125313 103.75045776 210.03129578 C103.47790117 207.1251751 103.20763036 204.21884716 102.9375 201.3125 C98.62535924 152.7368706 98.62535924 152.7368706 92.9375 104.3125 C92.83264282 103.54091553 92.72778564 102.76933105 92.61975098 101.97436523 C87.68621304 55.33851856 87.68621304 55.33851856 62.9375 17.3125 C48.86159521 8.12860863 32.39905344 5.99521604 15.9609375 6.046875 C14.58404941 6.04479054 13.20716216 6.04205979 11.83027649 6.03874207 C8.10312476 6.03322518 4.37614188 6.0421504 0.64901352 6.05515671 C-1.70122881 6.06254315 -4.05145079 6.06620048 -6.40170288 6.06887817 C-32.73412453 6.10476835 -59.05172054 6.57799847 -85.375 7.25 Z " fill="#F2F2F2" transform="translate(688.0625,95.6875)"/>
<path d="M0 0 C1.48223557 -0.00401825 1.48223557 -0.00401825 2.99441528 -0.00811768 C5.82964757 -0.0139693 8.66476704 -0.0122507 11.5 -0.0078125 C12.34143051 -0.00978638 13.18286102 -0.01176025 14.04978943 -0.01379395 C18.38284847 0.00304313 22.53206748 0.27747307 26.83276367 0.87576294 C31.42012072 1.40331934 36.04418004 1.46916888 40.65625 1.625 C42.30880798 1.6859082 42.30880798 1.6859082 43.99475098 1.74804688 C47.49638943 1.87702523 50.99816185 2.00157021 54.5 2.125 C59.11473966 2.28765639 63.72927845 2.45492478 68.34375 2.625 C69.91751404 2.67817383 69.91751404 2.67817383 71.52307129 2.73242188 C77.08096997 2.9377114 82.48959373 3.38493101 88 4.125 C93.34850815 4.54768515 98.70545781 4.83310268 104.0625 5.125 C104.84713623 5.16857635 105.63177246 5.21215271 106.44018555 5.25704956 C122.95804749 6.159402 139.48073632 6.52422716 156.01977539 6.78320312 C182.91338123 7.21861668 182.91338123 7.21861668 193.8125 9.9375 C194.89893799 10.20469849 194.89893799 10.20469849 196.00732422 10.47729492 C206.38656979 13.13836929 213.29045373 17.10873782 219.00390625 26.375 C220.3968329 28.79573968 221.75057059 31.23710606 223.09765625 33.68359375 C228.91208065 44.20209045 235.32552727 52.41041431 246.6640625 57.25390625 C255.79934759 59.63934955 265.77727038 58.5267659 275 57.125 C280.7108903 56.64985393 285.13329216 56.72962244 290 60.125 C300.01589564 73.24502588 297.44191211 93.45031856 297.44140625 109.03125 C297.45255962 111.68488903 297.4649843 114.33849024 297.47923279 116.99211121 C297.50750501 122.62009093 297.5266348 128.24803253 297.53930664 133.87606812 C297.571666 147.84241922 297.65679277 161.80852635 297.74076033 175.77464652 C297.75392518 177.99146877 297.76657053 180.20829349 297.77910233 182.4251194 C297.92699323 208.31295955 298.30479374 234.19120477 298.93348312 260.07217407 C298.99923937 262.78116403 299.06348594 265.49018646 299.12747192 268.19921875 C299.50212102 283.93342995 299.92122009 299.66140652 300.65905762 315.38352966 C301.14036559 325.74060652 301.3434521 336.10320141 301.55224609 346.46875 C301.60450856 349.01570609 301.66141318 351.5625288 301.71875 354.109375 C301.73911316 355.22841217 301.73911316 355.22841217 301.7598877 356.37005615 C301.85133632 360.34013838 302.08695483 364.25857109 302.47705078 368.2109375 C303.16363467 375.38242494 303.3910837 382.5690993 303.6484375 389.765625 C303.70577759 391.3044799 303.76342348 392.84332344 303.8213501 394.38215637 C303.94454116 397.66642896 304.06611333 400.95075552 304.18634033 404.23513794 C304.50794339 413.01509001 304.83980333 421.7946574 305.171875 430.57421875 C305.20569401 431.47064528 305.23951302 432.3670718 305.27435684 433.29066277 C305.75905941 446.11843924 306.2759812 458.94448343 306.828125 471.76953125 C306.87865713 472.94610228 306.87865713 472.94610228 306.93021011 474.14644241 C307.22093245 480.91074074 307.51284726 487.67498475 307.81365967 494.43884277 C309.34086353 528.79209117 310.18928284 563.10969317 310.18530273 597.4987793 C310.1851994 602.08670758 310.19909487 606.67448704 310.21607494 611.26237965 C310.22726633 614.88045422 310.22922012 618.49849277 310.22869301 622.11658287 C310.22985296 623.80871808 310.23415907 625.50085486 310.24202538 627.19297218 C310.44488186 675.11280878 310.44488186 675.11280878 296.5 690.4375 C292.23105525 694.35137184 287.30642948 696.73186617 282.18359375 699.35546875 C264.7130491 709.0660905 257.22196822 729.52648339 249.78930664 747.00976562 C246.97790094 753.52272018 243.59084829 761.16504057 236.71000671 764.10266113 C229.0592624 766.04396354 221.41674329 767.17316318 213.58203125 768.09375 C212.18014694 768.26319334 210.77827657 768.43275201 209.37641907 768.60241699 C193.63815406 770.48176632 177.8603766 771.96469585 162.07704163 773.40618134 C159.6480885 773.62860905 157.21934422 773.85320028 154.79064941 774.07843018 C131.52154833 776.23522116 108.24527372 778.23880552 84.94018555 779.97070312 C83.9648436 780.04362579 82.98950165 780.11654846 81.98460388 780.19168091 C80.20789832 780.32374935 78.43102496 780.45359179 76.65394592 780.58053589 C73.29253502 780.82873663 69.9935657 781.12595927 66.65771484 781.62329102 C61.54309759 782.32483543 56.42596166 782.59192369 51.2734375 782.87890625 C50.11764694 782.94439667 48.96185638 783.00988708 47.77104187 783.07736206 C-31.97978093 787.49885266 -31.97978093 787.49885266 -69.3125 783.4375 C-70.01664032 783.3634494 -70.72078064 783.2893988 -71.44625854 783.21310425 C-92.58515881 780.88961155 -109.45044723 774.44856274 -123.4375 758.125 C-130.40156841 750.1171003 -138.45825817 744.3328301 -147.27734375 738.57421875 C-165.97163913 726.35194484 -176.64078676 715.65009881 -181.57080078 693.56835938 C-187.5874046 664.70129433 -187.56523562 634.96306682 -188.46972656 605.60369873 C-188.59209341 601.67483738 -188.72002044 597.74616647 -188.84815407 593.81748962 C-189.38363751 577.37727376 -189.90120953 560.93693498 -190.27685547 544.4921875 C-190.29850612 543.54790138 -190.32015676 542.60361526 -190.34246349 541.63071442 C-190.44350435 537.17882946 -190.54023639 532.72691128 -190.629776 528.27478027 C-190.8059593 519.89869689 -191.11295304 511.54991641 -191.6136837 503.18698025 C-191.96381661 497.18352694 -192.19084253 491.18073457 -192.37915039 485.17016602 C-192.41049765 484.1754469 -192.4418449 483.18072779 -192.47414207 482.15586567 C-192.54137993 480.01768383 -192.60857011 477.8795005 -192.67571831 475.74131584 C-193.5358302 448.82372765 -194.75964788 421.92683465 -196.05859375 395.02734375 C-196.10589394 394.04615963 -196.15319413 393.06497552 -196.20192766 392.05405855 C-197.03991583 374.67198292 -197.88818738 357.29041079 -198.73852539 339.90893555 C-200.88486722 296.02842373 -203.0156754 252.14970866 -204.66517758 208.2471993 C-204.75987122 205.72882258 -204.85540534 203.21047876 -204.95101738 200.69213676 C-208.83049041 98.03725806 -208.83049041 98.03725806 -194 80.125 C-191.33217074 77.31140964 -188.51156645 74.71154738 -185.625 72.125 C-184.11010878 70.72076508 -182.59706237 69.31453716 -181.0859375 67.90625 C-178.82853319 65.81337357 -176.56507964 63.7289342 -174.2890625 61.65625 C-168.45008192 55.83964099 -166.58664664 48.89444462 -164.53369141 41.13964844 C-161.51647477 29.74986266 -158.81158701 20.30828648 -148.140625 14.03125 C-135.82546255 7.91996638 -120.42198942 7.21646497 -106.9375 5.5625 C-106.06561035 5.45450073 -105.1937207 5.34650146 -104.29541016 5.23522949 C-88.22103941 3.25775707 -72.18421988 1.85458961 -56 1.125 C-54.18798096 1.04040527 -54.18798096 1.04040527 -52.33935547 0.95410156 C-34.8957905 0.17985009 -17.45845585 0.02697206 0 0 Z M-126.5625 14.125 C-127.95275391 14.33745361 -127.95275391 14.33745361 -129.37109375 14.55419922 C-138.21258776 16.05128454 -146.62445934 18.59395835 -153 25.125 C-156.09909021 30.28482546 -157.09904509 35.56591826 -158.3125 41.375 C-160.07593528 49.18669719 -161.87831425 55.79337472 -167 62.125 C-167.93585938 63.30642578 -167.93585938 63.30642578 -168.890625 64.51171875 C-173.24900424 69.65299204 -178.08475833 73.95953871 -183.25 78.25 C-195.79360646 88.69528284 -197.87873869 100.05089444 -199.34277344 115.87255859 C-200.23840705 126.43883146 -200.29356108 136.99923633 -200.2890625 147.59765625 C-200.28961891 148.70909626 -200.29017532 149.82053627 -200.2907486 150.96565628 C-200.25900725 184.32483325 -198.60426583 217.64520902 -197.10849369 250.96367329 C-196.71230053 259.80334003 -196.33267703 268.64369662 -195.95309711 277.48408926 C-194.05307953 321.65878883 -191.90735561 365.8193172 -189.62486076 409.97578812 C-189.19057059 418.38256345 -188.76307742 426.7896318 -188.35058594 435.19750977 C-188.28622125 436.50816296 -188.28622125 436.50816296 -188.22055626 437.845294 C-187.12161812 460.42015334 -186.43021802 483.00805241 -185.74951172 505.59863281 C-185.66637271 508.35742283 -185.5832173 511.11621234 -185.5 513.875 C-185.47938633 514.55872429 -185.45877266 515.24244858 -185.43753433 515.94689178 C-184.97078319 531.39118422 -184.42912462 546.83260374 -183.87600708 562.27401733 C-183.38245232 576.06350186 -182.90610145 589.85328369 -182.46484375 603.64453125 C-182.42006842 605.03879339 -182.37527883 606.43305507 -182.33047485 607.82731628 C-182.11635253 614.49896255 -181.90489644 621.17067706 -181.69726562 627.8425293 C-182.49055815 677.18188612 -182.49055815 677.18188612 -163 720.125 C-159.20649289 723.43874004 -155.18318822 726.3302692 -151 729.125 C-150.38608398 729.53637207 -149.77216797 729.94774414 -149.13964844 730.37158203 C-146.55716147 732.09694484 -143.97097811 733.816441 -141.37695312 735.52441406 C-136.38373084 738.82304536 -131.64395829 742.3487027 -127 746.125 C-126.01 746.8675 -125.02 747.61 -124 748.375 C-121.1163744 750.77935265 -118.9034349 753.63731828 -116.5625 756.5625 C-104.51234249 771.52964055 -88.71830364 775.2692629 -70.1875 777.3125 C-6.71242131 783.50327118 57.73882735 776.82804933 120.99974823 771.29950714 C124.05129621 771.0332822 127.10305095 770.76945155 130.15478516 770.50537109 C148.0110089 768.95601493 165.8601454 767.3951493 183.65039062 765.19628906 C189.59860668 764.47190235 195.54367178 763.89334901 201.515625 763.4140625 C202.25460526 763.35321976 202.99358551 763.29237701 203.75495911 763.22969055 C207.37753171 762.93158725 211.00000995 762.64736061 214.62573242 762.39038086 C228.09078729 761.39044151 228.09078729 761.39044151 239.48046875 754.80078125 C241.24782021 751.68860708 242.8324442 748.57286157 244.3125 745.3125 C244.61099854 744.6630542 244.90949707 744.0136084 245.21704102 743.34448242 C246.77950066 739.92263437 248.2803646 736.48034025 249.7265625 733.0078125 C256.71792926 716.29210834 265.88217107 702.09860146 281.88671875 692.9140625 C292.17961385 686.99919932 296.88057768 681.51825491 300 670.125 C303.62045691 653.99751012 304.15982601 638.04640818 304.16796875 621.58203125 C304.17204458 619.55477355 304.17632665 617.52751626 304.18080139 615.5002594 C304.19241873 608.9793304 304.1909691 602.458436 304.1875 595.9375 C304.18723312 594.8237928 304.18696625 593.7100856 304.18669128 592.5626297 C304.17658216 559.05880754 303.81348766 525.65511423 302.19329834 492.18609619 C301.84642848 484.95596023 301.52847294 477.72446701 301.20451164 470.4932766 C300.52479979 455.33434201 299.83450134 440.17589774 299.13902473 425.01767921 C298.87977537 419.36406236 298.62135252 413.71040766 298.36294651 408.0567522 C298.1695132 403.8257269 297.97572673 399.59471893 297.78063965 395.36376953 C295.92471531 355.08863416 294.50443814 314.80212276 293.375 274.5 C293.34228374 273.33582298 293.30956749 272.17164597 293.27585983 270.97219086 C292.40606546 239.73802508 291.88608821 208.51413565 291.6953125 177.26953125 C291.68552546 175.70985409 291.67573314 174.15017697 291.66593552 172.59049988 C291.57595314 158.07325089 291.50036161 143.55606169 291.47822607 129.03853709 C291.4692469 123.32341717 291.45115845 117.60837238 291.42667925 111.89329809 C291.41316148 108.58072561 291.40698566 105.26839273 291.41113663 101.95578957 C291.41561566 98.3325787 291.40208524 94.70983272 291.38476562 91.08666992 C291.39397569 89.52375497 291.39397569 89.52375497 291.40337181 87.92926598 C291.33980659 80.25877117 291.17059285 70.93107511 286.06961823 64.8077116 C283.29565847 62.55233222 281.59357148 62.68336876 278.0625 62.8125 C277.04285156 62.83699219 276.02320313 62.86148438 274.97265625 62.88671875 C272.06447999 63.05963325 272.06447999 63.05963325 269.5078125 63.6328125 C257.06621604 66.07462115 245.39839628 63.73091118 234.8125 57.07421875 C226.46672463 51.29013277 222.36519103 44.51891232 217.64453125 35.71313477 C213.11089168 27.30963504 208.48133161 20.12063545 199 17.125 C182.95890587 13.27097089 166.74487237 12.96107175 150.33621216 12.42330933 C125.22928124 11.5894049 100.14805158 10.37835231 75.0625 9.0625 C73.36238647 8.97365562 71.66227254 8.88481889 69.9621582 8.79598999 C65.11136623 8.54210604 60.26073586 8.28524934 55.41015625 8.02734375 C54.31703471 7.96955875 54.31703471 7.96955875 53.20182991 7.91060638 C51.10592758 7.79950177 49.01009594 7.6871906 46.91430664 7.57397461 C46.24796015 7.53803664 45.58161366 7.50209867 44.89507484 7.46507168 C40.36821403 7.21520322 35.84767432 6.90426019 31.32568359 6.57910156 C24.33705315 6.10551037 17.38202 5.96440972 10.37890625 5.95703125 C9.13212097 5.95279648 7.88533569 5.94856171 6.60076904 5.94419861 C2.58797481 5.9343763 -1.42470157 5.93401807 -5.4375 5.9375 C-6.12395725 5.93776688 -6.81041451 5.93803375 -7.51767349 5.93830872 C-47.54404946 5.95784548 -86.98255949 7.88441279 -126.5625 14.125 Z " fill="#F2F2F2" transform="translate(480,113.875)"/>
<path d="M0 0 C0.81067932 -0.00807175 1.62135864 -0.01614349 2.456604 -0.02445984 C4.17108064 -0.03823193 5.88558391 -0.04898452 7.60009766 -0.05688477 C9.31404953 -0.06829825 11.02796896 -0.08857697 12.74169922 -0.1184082 C38.60395192 -0.56690106 65.13931394 5.13226881 84.58984375 23.25 C91.92694723 31.07932006 98.06121339 39.98880921 101.453125 50.23828125 C101.123125 51.22828125 100.793125 52.21828125 100.453125 53.23828125 C99.7003125 52.4390625 98.9475 51.63984375 98.171875 50.81640625 C79.08030762 30.91866904 53.25905155 12.8095387 24.70039368 11.97373962 C21.81704201 11.92395402 18.93500645 11.9140381 16.05126953 11.92260742 C13.85267477 11.9257462 11.65545864 11.90231013 9.45703125 11.87695312 C-3.58848435 11.81768853 -16.17692918 13.6233223 -28.546875 17.92578125 C-29.65687866 18.30597412 -29.65687866 18.30597412 -30.78930664 18.69384766 C-46.69049826 24.33910086 -59.86796959 32.68846992 -72.265625 44.14453125 C-74.23250186 45.949747 -76.23790505 47.6655341 -78.296875 49.36328125 C-81.78872274 52.31600761 -84.67908969 55.68768991 -87.546875 59.23828125 C-87.876875 58.57828125 -88.206875 57.91828125 -88.546875 57.23828125 C-77.9631818 34.18359291 -56.03309366 15.70776871 -32.76953125 6.40234375 C-21.93832837 2.48998198 -11.5070765 0.11223692 0 0 Z " fill="#F7F7F7" transform="translate(527.546875,457.76171875)"/>
<path d="M0 0 C12.69236399 4.35231871 24.6133713 17.80830221 33 28 C18.29690121 43.69168321 -11.14584055 52.11111211 -32 55 C-33.66626975 55.03637151 -35.33404587 55.04872992 -37 55 C-34.8891825 53.93486398 -32.77246904 52.89299287 -30.6328125 51.88671875 C-25.43497536 49.40114865 -21.32406568 46.78355747 -17 43 C-16.34 43 -15.68 43 -15 43 C-14.59201172 42.13181641 -14.59201172 42.13181641 -14.17578125 41.24609375 C-13.00591873 39.01130655 -11.66988805 37.10029465 -10.1875 35.0625 C-2.90941756 24.11868411 -1.02701906 12.7994167 0 0 Z " fill="#FAFAFA" transform="translate(594,490)"/>
<path d="M0 0 C0.03738281 0.90621094 0.07476562 1.81242187 0.11328125 2.74609375 C0.50269835 9.96176362 1.01927815 16.38138927 4 23 C4.58394531 24.30710937 4.58394531 24.30710937 5.1796875 25.640625 C11.89094614 39.21480915 23.14589221 47.57882738 37 53 C37 53.33 37 53.66 37 54 C21.3986119 52.86019135 7.00288787 47.73585808 -7.3125 41.625 C-8.35543213 41.1913916 -9.39836426 40.7577832 -10.47290039 40.31103516 C-18.95318728 36.5580396 -25.76404376 31.47191248 -30 23 C-8.42268041 0 -8.42268041 0 0 0 Z " fill="#F8F8F8" transform="translate(481,490)"/>
<path d="M0 0 C1.625 1.125 1.625 1.125 2.625 3.125 C3.60277049 14.07602954 -1.34843117 21.8557142 -7.93359375 30.28515625 C-13.02720444 36.21004421 -19.46533339 43.33945334 -27.5 44.625 C-30.375 44.125 -30.375 44.125 -32.25 42.0625 C-35.53814963 33.47677596 -31.58225333 25.09458516 -28.0546875 17.15234375 C-22.91584754 6.94486656 -12.69772601 -4.67810958 0 0 Z " fill="#FAFAFA" transform="translate(780.375,830.875)"/>
<path d="M0 0 C3.97654007 2.27844999 6.54330193 4.62990579 8 9 C8.96096005 16.60531242 7.4665696 21.81551902 3 28 C-2.00893992 33.77954607 -7.084416 37.59816915 -14.81640625 38.171875 C-18.35815393 37.89309701 -20.38903854 36.29255153 -23 34 C-26.03020647 29.4546903 -25.772962 25.32410894 -25 20 C-22.34769538 12.91283538 -18.69602632 6.15249304 -12.875 1.1875 C-8.54022136 -0.60295205 -4.609191 -0.90320073 0 0 Z " fill="#FBFBFB" transform="translate(283,140)"/>
<path d="M0 0 C5.68677625 2.33578763 10.91561235 5.72438142 14.2265625 11.0078125 C16.17309928 16.02161935 15.78766724 21.10959862 13.75 26 C11.3372088 28.75747566 9.20225048 29.79735162 5.58984375 30.40625 C-2.98937165 30.70949178 -9.16526742 27.9790277 -15.765625 22.546875 C-18.75751198 19.41742999 -19.92154778 16.17232246 -20.1953125 11.953125 C-19.72703142 7.27031421 -16.69398715 4.62789314 -13.375 1.625 C-8.72440246 -0.6141766 -5.06693858 -0.97469744 0 0 Z " fill="#FAFAFA" transform="translate(742,129)"/>
<path d="M0 0 C8.095674 2.85561693 11.36020007 9.72040015 15 17 C16.19217846 29.33053148 16.19217846 29.33053148 13.125 33.8125 C9.30418837 36.48706814 6.94064276 36.75992635 2.359375 36.44140625 C-2.85077288 35.46666004 -5.12040313 32.01117259 -8.0625 27.9375 C-12.29061228 21.30580968 -16.44260114 13.01445078 -15 5 C-11.22464179 -0.91472786 -6.44817018 -1.18134415 0 0 Z " fill="#FBFBFB" transform="translate(314,853)"/>
<path d="M0 0 C0.495 0.48210938 0.99 0.96421875 1.5 1.4609375 C4.89927993 3.5536192 8.12192328 3.43913633 12 3.625 C19.30537756 4.19906291 25.11276053 5.99296787 31.6875 9.1875 C69.51300449 27.44643717 112.22120008 30.04005156 151.875 16.375 C155.90659555 14.98624579 159.79343869 13.71975384 164 13 C162.42616645 16.14766711 159.26246575 16.67743883 156.125 17.875 C155.44099121 18.13966064 154.75698242 18.40432129 154.05224609 18.67700195 C152.67008971 19.21000836 151.2867938 19.74006975 149.90234375 20.26708984 C148.31117643 20.88011401 146.7320423 21.52425174 145.15625 22.17578125 C137.02230351 25.42684937 128.60829587 26.65253993 120 28 C119.08524902 28.17418457 118.17049805 28.34836914 117.22802734 28.52783203 C111.43359201 29.375392 105.58023761 29.18592688 99.73510742 29.18530273 C97.4683907 29.18747046 95.20217652 29.20560355 92.93554688 29.22460938 C84.09889622 29.25885316 75.71014101 28.65746525 67 27 C65.75605469 26.78859375 64.51210938 26.5771875 63.23046875 26.359375 C52.01881439 24.11416565 41.64136092 20.44706849 31.50390625 15.19921875 C19.35363399 8.94606038 9.77228624 5.26066379 -4 6 C-2.84826645 3.53199953 -1.95216435 1.95216435 0 0 Z " fill="#F3F3F3" transform="translate(439,526)"/>
<path d="M0 0 C-11.72706705 5.66873174 -23.31287033 10.55094605 -36.1875 12.875 C-36.9187207 13.00737061 -37.64994141 13.13974121 -38.40332031 13.27612305 C-41.71437023 13.81979215 -43.76924087 14.07691971 -47 13 C-44.67965277 10.26265746 -43.09159109 9.56055001 -39.5625 9.078125 C-38.67602783 8.94301514 -37.78955566 8.80790527 -36.8762207 8.66870117 C-35.92706787 8.53052979 -34.97791504 8.3923584 -34 8.25 C-25.17229417 6.83853192 -17.17050735 4.5938915 -8.90429688 1.19824219 C-3.27072558 -1.09024186 -3.27072558 -1.09024186 0 0 Z " fill="#DDDDDD" transform="translate(603,540)"/>
<path d="M0 0 C0.53625 0.45375 1.0725 0.9075 1.625 1.375 C4.31698302 3.21688312 6.88520388 4.07971933 10 5 C10 5.33 10 5.66 10 6 C5.38 6 0.76 6 -4 6 C-2 2 -2 2 0 0 Z " fill="#C0C0C0" transform="translate(439,526)"/>
<path d="M0 0 C0.99 0.33 1.98 0.66 3 1 C0.98488879 1.99088927 -1.03740047 2.96718737 -3.0625 3.9375 C-4.18785156 4.48277344 -5.31320312 5.02804687 -6.47265625 5.58984375 C-10.04010413 7.01603277 -13.19068005 7.61664169 -17 8 C-17 7.34 -17 6.68 -17 6 C-15.41058594 5.47599609 -15.41058594 5.47599609 -13.7890625 4.94140625 C-12.40101541 4.48185012 -11.01299601 4.02221036 -9.625 3.5625 C-8.57699219 3.21735352 -8.57699219 3.21735352 -7.5078125 2.86523438 C-3.68189163 1.61264601 -3.68189163 1.61264601 0 0 Z " fill="#D5D5D5" transform="translate(600,539)"/>
<path d="M0 0 C3.3 0.33 6.6 0.66 10 1 C8.68 1.33 7.36 1.66 6 2 C6 2.66 6 3.32 6 4 C3.03 3.67 0.06 3.34 -3 3 C-2.01 2.67 -1.02 2.34 0 2 C0 1.34 0 0.68 0 0 Z " fill="#2A2A2A" transform="translate(305,940)"/>
<path d="M0 0 C0.66 0 1.32 0 2 0 C2.99 1.98 3.98 3.96 5 6 C3.02 6 1.04 6 -1 6 C-0.67 4.02 -0.34 2.04 0 0 Z " fill="#EBEBEB" transform="translate(447,519)"/>
<path d="M0 0 C-2.90092502 1.93395001 -3.89674737 2.30131941 -7.1875 2.625 C-8.445625 2.74875 -9.70375 2.8725 -11 3 C-9 0 -9 0 -6.0625 -0.75 C-3 -1 -3 -1 0 0 Z " fill="#EBEBEB" transform="translate(584,547)"/>
<path d="M0 0 C0.33 0 0.66 0 1 0 C1.25 6.625 1.25 6.625 -1 10 C-1.33 7.36 -1.66 4.72 -2 2 C-1.34 2 -0.68 2 0 2 C0 1.34 0 0.68 0 0 Z " fill="#B5B5B5" transform="translate(428,526)"/>
</svg>
